# MagicaVoxel @ Ephtracy

# group
o 

# material
mtllib plate_chest.mtl
usemtl palette

# normals
vn -1 0 0
vn 1 0 0
vn 0 0 1
vn 0 0 -1
vn 0 -1 0
vn 0 1 0

# texcoords
vt 0.970703 0.5
vt 0.974609 0.5

# verts
v -0.6 1 0.2
v -0.6 1 -0.3
v -0.6 1.1 0.2
v -0.6 1.1 -0.3
v -0.6 1.6 0.1
v -0.6 1.6 0
v -0.6 1.6 -0.1
v -0.6 1.6 -0.2
v -0.6 1.7 0.1
v -0.6 1.7 0
v -0.6 1.7 -0.1
v -0.6 1.7 -0.2
v -0.6 1.8 0
v -0.6 1.8 -0.1
v -0.5 1.1 0.2
v -0.5 1.1 -0.3
v -0.5 1.3 0.2
v -0.5 1.3 -0.3
v -0.5 1.7 0.1
v -0.5 1.7 0
v -0.5 1.7 -0.1
v -0.5 1.7 -0.2
v -0.5 1.8 0.1
v -0.5 1.8 0
v -0.5 1.8 -0.1
v -0.5 1.8 -0.2
v -0.5 1.9 0
v -0.5 1.9 -0.1
v -0.4 1.1 0.3
v -0.4 1.1 0.2
v -0.4 1.1 -0.3
v -0.4 1.1 -0.4
v -0.4 1.3 0.3
v -0.4 1.3 0.2
v -0.4 1.3 -0.3
v -0.4 1.3 -0.4
v -0.4 1.7 0.2
v -0.4 1.7 0.1
v -0.4 1.7 -0.2
v -0.4 1.7 -0.3
v -0.3 1 0.5
v -0.3 1 0.3
v -0.3 1 -0.4
v -0.3 1 -0.6
v -0.3 1.1 0.5
v -0.3 1.1 0.4
v -0.3 1.1 0.3
v -0.3 1.1 -0.4
v -0.3 1.1 -0.5
v -0.3 1.1 -0.6
v -0.3 1.3 0.4
v -0.3 1.3 0.3
v -0.3 1.3 0.2
v -0.3 1.3 -0.3
v -0.3 1.3 -0.4
v -0.3 1.3 -0.5
v -0.3 1.4 0.4
v -0.3 1.4 0.3
v -0.3 1.5 0.4
v -0.3 1.5 0.3
v -0.3 1.7 0.3
v -0.3 1.7 0.2
v -0.3 1.7 0.1
v -0.3 1.7 -0.2
v -0.3 1.7 -0.3
v -0.3 1.7 -0.4
v -0.3 1.8 0.2
v -0.3 1.8 0.1
v -0.3 1.8 -0.2
v -0.3 1.8 -0.3
v -0.2 1.4 -0.4
v -0.2 1.4 -0.5
v -0.2 1.5 0.4
v -0.2 1.5 0.3
v -0.2 1.6 0.4
v -0.2 1.6 0.3
v -0.2 1.6 -0.4
v -0.2 1.6 -0.5
v -0.2 1.7 0.3
v -0.2 1.7 0.2
v -0.2 1.7 -0.3
v -0.2 1.7 -0.4
v -0.2 1.7 -0.5
v -0.2 1.8 0.3
v -0.2 1.8 0.2
v -0.2 1.8 -0.3
v -0.2 1.8 -0.4
v -0.2 1.8 -0.5
v -0.1 1.6 0.4
v -0.1 1.6 0.3
v -0.1 1.7 0.4
v -0.1 1.7 0.3
v 0.2 1.7 0.1
v 0.2 1.7 -0.2
v 0.2 1.8 0.1
v 0.2 1.8 -0.2
v 0.3 1.1 0.3
v 0.3 1.1 0.2
v 0.3 1.1 -0.3
v 0.3 1.1 -0.4
v 0.3 1.2 0.3
v 0.3 1.2 0.2
v 0.3 1.2 -0.3
v 0.3 1.2 -0.4
v 0.3 1.7 0.2
v 0.3 1.7 -0.3
v 0.3 1.8 0
v 0.3 1.8 -0.1
v 0.3 1.9 0
v 0.3 1.9 -0.1
v 0.4 1 0.2
v 0.4 1 -0.3
v 0.4 1.1 0.2
v 0.4 1.1 -0.3
v 0.4 1.2 0.2
v 0.4 1.2 -0.3
v 0.5 1.6 0.1
v 0.5 1.6 0
v 0.5 1.6 -0.1
v 0.5 1.6 -0.2
v 0.5 1.7 0.1
v 0.5 1.7 0
v 0.5 1.7 -0.1
v 0.5 1.7 -0.2
v -0.5 1.6 0.1
v -0.5 1.6 0
v -0.5 1.6 -0.1
v -0.5 1.6 -0.2
v -0.5 1.7 0.1
v -0.5 1.7 0
v -0.5 1.7 -0.1
v -0.5 1.7 -0.2
v -0.4 1 0.2
v -0.4 1 -0.3
v -0.4 1.1 0.2
v -0.4 1.1 -0.3
v -0.4 1.2 0.2
v -0.4 1.2 -0.3
v -0.3 1.1 0.3
v -0.3 1.1 0.2
v -0.3 1.1 -0.3
v -0.3 1.1 -0.4
v -0.3 1.2 0.3
v -0.3 1.2 0.2
v -0.3 1.2 -0.3
v -0.3 1.2 -0.4
v -0.3 1.7 0.2
v -0.3 1.7 -0.3
v -0.3 1.8 0
v -0.3 1.8 -0.1
v -0.3 1.9 0
v -0.3 1.9 -0.1
v -0.2 1.7 0.1
v -0.2 1.7 -0.2
v -0.2 1.8 0.1
v -0.2 1.8 -0.2
v 0.1 1.6 0.4
v 0.1 1.6 0.3
v 0.1 1.7 0.4
v 0.1 1.7 0.3
v 0.2 1.4 -0.4
v 0.2 1.4 -0.5
v 0.2 1.5 0.4
v 0.2 1.5 0.3
v 0.2 1.6 0.4
v 0.2 1.6 0.3
v 0.2 1.6 -0.4
v 0.2 1.6 -0.5
v 0.2 1.7 0.3
v 0.2 1.7 0.2
v 0.2 1.7 -0.3
v 0.2 1.7 -0.4
v 0.2 1.7 -0.5
v 0.2 1.8 0.3
v 0.2 1.8 0.2
v 0.2 1.8 -0.3
v 0.2 1.8 -0.4
v 0.2 1.8 -0.5
v 0.3 1 0.5
v 0.3 1 0.3
v 0.3 1 -0.4
v 0.3 1 -0.6
v 0.3 1.1 0.5
v 0.3 1.1 0.4
v 0.3 1.1 0.3
v 0.3 1.1 -0.4
v 0.3 1.1 -0.5
v 0.3 1.1 -0.6
v 0.3 1.3 0.4
v 0.3 1.3 0.3
v 0.3 1.3 0.2
v 0.3 1.3 -0.3
v 0.3 1.3 -0.4
v 0.3 1.3 -0.5
v 0.3 1.4 0.4
v 0.3 1.4 0.3
v 0.3 1.5 0.4
v 0.3 1.5 0.3
v 0.3 1.7 0.3
v 0.3 1.7 0.2
v 0.3 1.7 0.1
v 0.3 1.7 -0.2
v 0.3 1.7 -0.3
v 0.3 1.7 -0.4
v 0.3 1.8 0.2
v 0.3 1.8 0.1
v 0.3 1.8 -0.2
v 0.3 1.8 -0.3
v 0.4 1.1 0.3
v 0.4 1.1 0.2
v 0.4 1.1 -0.3
v 0.4 1.1 -0.4
v 0.4 1.3 0.3
v 0.4 1.3 0.2
v 0.4 1.3 -0.3
v 0.4 1.3 -0.4
v 0.4 1.7 0.2
v 0.4 1.7 0.1
v 0.4 1.7 -0.2
v 0.4 1.7 -0.3
v 0.5 1.1 0.2
v 0.5 1.1 -0.3
v 0.5 1.3 0.2
v 0.5 1.3 -0.3
v 0.5 1.7 0.1
v 0.5 1.7 0
v 0.5 1.7 -0.1
v 0.5 1.7 -0.2
v 0.5 1.8 0.1
v 0.5 1.8 0
v 0.5 1.8 -0.1
v 0.5 1.8 -0.2
v 0.5 1.9 0
v 0.5 1.9 -0.1
v 0.6 1 0.2
v 0.6 1 -0.3
v 0.6 1.1 0.2
v 0.6 1.1 -0.3
v 0.6 1.6 0.1
v 0.6 1.6 0
v 0.6 1.6 -0.1
v 0.6 1.6 -0.2
v 0.6 1.7 0.1
v 0.6 1.7 0
v 0.6 1.7 -0.1
v 0.6 1.7 -0.2
v 0.6 1.8 0
v 0.6 1.8 -0.1
v -0.3 1 0.5
v -0.3 1.1 0.5
v 0.3 1 0.5
v 0.3 1.1 0.5
v -0.3 1.1 0.4
v -0.3 1.3 0.4
v -0.3 1.4 0.4
v -0.3 1.5 0.4
v -0.2 1.5 0.4
v -0.2 1.6 0.4
v -0.1 1.6 0.4
v -0.1 1.7 0.4
v 0.1 1.6 0.4
v 0.1 1.7 0.4
v 0.2 1.5 0.4
v 0.2 1.6 0.4
v 0.3 1.1 0.4
v 0.3 1.3 0.4
v 0.3 1.4 0.4
v 0.3 1.5 0.4
v -0.4 1.1 0.3
v -0.4 1.3 0.3
v -0.3 1.1 0.3
v -0.3 1.3 0.3
v -0.3 1.4 0.3
v -0.3 1.5 0.3
v -0.3 1.7 0.3
v -0.2 1.5 0.3
v -0.2 1.6 0.3
v -0.2 1.7 0.3
v -0.2 1.8 0.3
v -0.1 1.6 0.3
v -0.1 1.7 0.3
v 0.1 1.6 0.3
v 0.1 1.7 0.3
v 0.2 1.5 0.3
v 0.2 1.6 0.3
v 0.2 1.7 0.3
v 0.2 1.8 0.3
v 0.3 1.1 0.3
v 0.3 1.3 0.3
v 0.3 1.4 0.3
v 0.3 1.5 0.3
v 0.3 1.7 0.3
v 0.4 1.1 0.3
v 0.4 1.3 0.3
v -0.6 1 0.2
v -0.6 1.1 0.2
v -0.5 1.1 0.2
v -0.5 1.3 0.2
v -0.4 1 0.2
v -0.4 1.1 0.2
v -0.4 1.3 0.2
v -0.4 1.7 0.2
v -0.3 1.3 0.2
v -0.3 1.7 0.2
v -0.3 1.8 0.2
v -0.2 1.7 0.2
v -0.2 1.8 0.2
v 0.2 1.7 0.2
v 0.2 1.8 0.2
v 0.3 1.3 0.2
v 0.3 1.7 0.2
v 0.3 1.8 0.2
v 0.4 1 0.2
v 0.4 1.1 0.2
v 0.4 1.3 0.2
v 0.4 1.7 0.2
v 0.5 1.1 0.2
v 0.5 1.3 0.2
v 0.6 1 0.2
v 0.6 1.1 0.2
v -0.6 1.6 0.1
v -0.6 1.7 0.1
v -0.5 1.6 0.1
v -0.5 1.7 0.1
v -0.5 1.8 0.1
v -0.4 1.7 0.1
v -0.3 1.7 0.1
v -0.3 1.8 0.1
v 0.3 1.7 0.1
v 0.3 1.8 0.1
v 0.4 1.7 0.1
v 0.5 1.6 0.1
v 0.5 1.7 0.1
v 0.5 1.8 0.1
v 0.6 1.6 0.1
v 0.6 1.7 0.1
v -0.6 1.7 0
v -0.6 1.8 0
v -0.5 1.7 0
v -0.5 1.8 0
v -0.5 1.9 0
v -0.3 1.8 0
v -0.3 1.9 0
v 0.3 1.8 0
v 0.3 1.9 0
v 0.5 1.7 0
v 0.5 1.8 0
v 0.5 1.9 0
v 0.6 1.7 0
v 0.6 1.8 0
v -0.6 1.6 -0.1
v -0.6 1.7 -0.1
v -0.5 1.6 -0.1
v -0.5 1.7 -0.1
v 0.5 1.6 -0.1
v 0.5 1.7 -0.1
v 0.6 1.6 -0.1
v 0.6 1.7 -0.1
v -0.2 1.7 -0.2
v -0.2 1.8 -0.2
v 0.2 1.7 -0.2
v 0.2 1.8 -0.2
v -0.4 1.1 -0.3
v -0.4 1.2 -0.3
v -0.3 1.1 -0.3
v -0.3 1.2 -0.3
v -0.3 1.7 -0.3
v 0.3 1.1 -0.3
v 0.3 1.2 -0.3
v 0.3 1.7 -0.3
v 0.4 1.1 -0.3
v 0.4 1.2 -0.3
v -0.3 1 -0.4
v -0.3 1.1 -0.4
v -0.3 1.2 -0.4
v 0.3 1 -0.4
v 0.3 1.1 -0.4
v 0.3 1.2 -0.4
v -0.3 1 0.3
v -0.3 1.1 0.3
v -0.3 1.2 0.3
v 0.3 1 0.3
v 0.3 1.1 0.3
v 0.3 1.2 0.3
v -0.4 1.1 0.2
v -0.4 1.2 0.2
v -0.3 1.1 0.2
v -0.3 1.2 0.2
v -0.3 1.7 0.2
v 0.3 1.1 0.2
v 0.3 1.2 0.2
v 0.3 1.7 0.2
v 0.4 1.1 0.2
v 0.4 1.2 0.2
v -0.2 1.7 0.1
v -0.2 1.8 0.1
v 0.2 1.7 0.1
v 0.2 1.8 0.1
v -0.6 1.6 0
v -0.6 1.7 0
v -0.5 1.6 0
v -0.5 1.7 0
v 0.5 1.6 0
v 0.5 1.7 0
v 0.6 1.6 0
v 0.6 1.7 0
v -0.6 1.7 -0.1
v -0.6 1.8 -0.1
v -0.5 1.7 -0.1
v -0.5 1.8 -0.1
v -0.5 1.9 -0.1
v -0.3 1.8 -0.1
v -0.3 1.9 -0.1
v 0.3 1.8 -0.1
v 0.3 1.9 -0.1
v 0.5 1.7 -0.1
v 0.5 1.8 -0.1
v 0.5 1.9 -0.1
v 0.6 1.7 -0.1
v 0.6 1.8 -0.1
v -0.6 1.6 -0.2
v -0.6 1.7 -0.2
v -0.5 1.6 -0.2
v -0.5 1.7 -0.2
v -0.5 1.8 -0.2
v -0.4 1.7 -0.2
v -0.3 1.7 -0.2
v -0.3 1.8 -0.2
v 0.3 1.7 -0.2
v 0.3 1.8 -0.2
v 0.4 1.7 -0.2
v 0.5 1.6 -0.2
v 0.5 1.7 -0.2
v 0.5 1.8 -0.2
v 0.6 1.6 -0.2
v 0.6 1.7 -0.2
v -0.6 1 -0.3
v -0.6 1.1 -0.3
v -0.5 1.1 -0.3
v -0.5 1.3 -0.3
v -0.4 1 -0.3
v -0.4 1.1 -0.3
v -0.4 1.3 -0.3
v -0.4 1.7 -0.3
v -0.3 1.3 -0.3
v -0.3 1.7 -0.3
v -0.3 1.8 -0.3
v -0.2 1.7 -0.3
v -0.2 1.8 -0.3
v 0.2 1.7 -0.3
v 0.2 1.8 -0.3
v 0.3 1.3 -0.3
v 0.3 1.7 -0.3
v 0.3 1.8 -0.3
v 0.4 1 -0.3
v 0.4 1.1 -0.3
v 0.4 1.3 -0.3
v 0.4 1.7 -0.3
v 0.5 1.1 -0.3
v 0.5 1.3 -0.3
v 0.6 1 -0.3
v 0.6 1.1 -0.3
v -0.4 1.1 -0.4
v -0.4 1.3 -0.4
v -0.3 1.1 -0.4
v -0.3 1.3 -0.4
v -0.3 1.7 -0.4
v -0.2 1.4 -0.4
v -0.2 1.6 -0.4
v -0.2 1.7 -0.4
v 0.2 1.4 -0.4
v 0.2 1.6 -0.4
v 0.2 1.7 -0.4
v 0.3 1.1 -0.4
v 0.3 1.3 -0.4
v 0.3 1.7 -0.4
v 0.4 1.1 -0.4
v 0.4 1.3 -0.4
v -0.3 1.1 -0.5
v -0.3 1.3 -0.5
v -0.2 1.4 -0.5
v -0.2 1.6 -0.5
v -0.2 1.7 -0.5
v -0.2 1.8 -0.5
v 0.2 1.4 -0.5
v 0.2 1.6 -0.5
v 0.2 1.7 -0.5
v 0.2 1.8 -0.5
v 0.3 1.1 -0.5
v 0.3 1.3 -0.5
v -0.3 1 -0.6
v -0.3 1.1 -0.6
v 0.3 1 -0.6
v 0.3 1.1 -0.6
v -0.3 1 0.5
v 0.3 1 0.5
v -0.3 1 0.3
v 0.3 1 0.3
v -0.6 1 0.2
v -0.4 1 0.2
v 0.4 1 0.2
v 0.6 1 0.2
v -0.6 1 -0.3
v -0.4 1 -0.3
v 0.4 1 -0.3
v 0.6 1 -0.3
v -0.3 1 -0.4
v 0.3 1 -0.4
v -0.3 1 -0.6
v 0.3 1 -0.6
v -0.4 1.1 0.3
v -0.3 1.1 0.3
v 0.3 1.1 0.3
v 0.4 1.1 0.3
v -0.4 1.1 0.2
v -0.3 1.1 0.2
v 0.3 1.1 0.2
v 0.4 1.1 0.2
v -0.4 1.1 -0.3
v -0.3 1.1 -0.3
v 0.3 1.1 -0.3
v 0.4 1.1 -0.3
v -0.4 1.1 -0.4
v -0.3 1.1 -0.4
v 0.3 1.1 -0.4
v 0.4 1.1 -0.4
v -0.3 1.2 0.3
v 0.3 1.2 0.3
v -0.4 1.2 0.2
v -0.3 1.2 0.2
v 0.3 1.2 0.2
v 0.4 1.2 0.2
v -0.4 1.2 -0.3
v -0.3 1.2 -0.3
v 0.3 1.2 -0.3
v 0.4 1.2 -0.3
v -0.3 1.2 -0.4
v 0.3 1.2 -0.4
v -0.3 1.4 0.4
v 0.3 1.4 0.4
v -0.3 1.4 0.3
v 0.3 1.4 0.3
v -0.2 1.4 -0.4
v 0.2 1.4 -0.4
v -0.2 1.4 -0.5
v 0.2 1.4 -0.5
v -0.6 1.6 0.1
v -0.5 1.6 0.1
v 0.5 1.6 0.1
v 0.6 1.6 0.1
v -0.6 1.6 0
v -0.5 1.6 0
v 0.5 1.6 0
v 0.6 1.6 0
v -0.6 1.6 -0.1
v -0.5 1.6 -0.1
v 0.5 1.6 -0.1
v 0.6 1.6 -0.1
v -0.6 1.6 -0.2
v -0.5 1.6 -0.2
v 0.5 1.6 -0.2
v 0.6 1.6 -0.2
v -0.3 1.7 0.2
v 0.3 1.7 0.2
v -0.5 1.7 0.1
v -0.4 1.7 0.1
v -0.2 1.7 0.1
v 0.2 1.7 0.1
v 0.4 1.7 0.1
v 0.5 1.7 0.1
v -0.6 1.7 0
v -0.5 1.7 0
v 0.5 1.7 0
v 0.6 1.7 0
v -0.6 1.7 -0.1
v -0.5 1.7 -0.1
v 0.5 1.7 -0.1
v 0.6 1.7 -0.1
v -0.5 1.7 -0.2
v -0.4 1.7 -0.2
v -0.2 1.7 -0.2
v 0.2 1.7 -0.2
v 0.4 1.7 -0.2
v 0.5 1.7 -0.2
v -0.3 1.7 -0.3
v 0.3 1.7 -0.3
v -0.2 1.7 -0.4
v 0.2 1.7 -0.4
v -0.2 1.7 -0.5
v 0.2 1.7 -0.5
v -0.3 1.1 0.5
v 0.3 1.1 0.5
v -0.3 1.1 0.4
v 0.3 1.1 0.4
v -0.6 1.1 0.2
v -0.5 1.1 0.2
v 0.5 1.1 0.2
v 0.6 1.1 0.2
v -0.6 1.1 -0.3
v -0.5 1.1 -0.3
v 0.5 1.1 -0.3
v 0.6 1.1 -0.3
v -0.3 1.1 -0.5
v 0.3 1.1 -0.5
v -0.3 1.1 -0.6
v 0.3 1.1 -0.6
v -0.3 1.3 0.4
v 0.3 1.3 0.4
v -0.4 1.3 0.3
v -0.3 1.3 0.3
v 0.3 1.3 0.3
v 0.4 1.3 0.3
v -0.5 1.3 0.2
v -0.4 1.3 0.2
v -0.3 1.3 0.2
v 0.3 1.3 0.2
v 0.4 1.3 0.2
v 0.5 1.3 0.2
v -0.5 1.3 -0.3
v -0.4 1.3 -0.3
v -0.3 1.3 -0.3
v 0.3 1.3 -0.3
v 0.4 1.3 -0.3
v 0.5 1.3 -0.3
v -0.4 1.3 -0.4
v -0.3 1.3 -0.4
v 0.3 1.3 -0.4
v 0.4 1.3 -0.4
v -0.3 1.3 -0.5
v 0.3 1.3 -0.5
v -0.3 1.5 0.4
v -0.2 1.5 0.4
v 0.2 1.5 0.4
v 0.3 1.5 0.4
v -0.3 1.5 0.3
v -0.2 1.5 0.3
v 0.2 1.5 0.3
v 0.3 1.5 0.3
v -0.2 1.6 0.4
v -0.1 1.6 0.4
v 0.1 1.6 0.4
v 0.2 1.6 0.4
v -0.2 1.6 0.3
v -0.1 1.6 0.3
v 0.1 1.6 0.3
v 0.2 1.6 0.3
v -0.2 1.6 -0.4
v 0.2 1.6 -0.4
v -0.2 1.6 -0.5
v 0.2 1.6 -0.5
v -0.1 1.7 0.4
v 0.1 1.7 0.4
v -0.3 1.7 0.3
v -0.2 1.7 0.3
v -0.1 1.7 0.3
v 0.1 1.7 0.3
v 0.2 1.7 0.3
v 0.3 1.7 0.3
v -0.4 1.7 0.2
v -0.3 1.7 0.2
v -0.2 1.7 0.2
v 0.2 1.7 0.2
v 0.3 1.7 0.2
v 0.4 1.7 0.2
v -0.6 1.7 0.1
v -0.5 1.7 0.1
v -0.4 1.7 0.1
v -0.3 1.7 0.1
v 0.3 1.7 0.1
v 0.4 1.7 0.1
v 0.5 1.7 0.1
v 0.6 1.7 0.1
v -0.6 1.7 0
v -0.5 1.7 0
v 0.5 1.7 0
v 0.6 1.7 0
v -0.6 1.7 -0.1
v -0.5 1.7 -0.1
v 0.5 1.7 -0.1
v 0.6 1.7 -0.1
v -0.6 1.7 -0.2
v -0.5 1.7 -0.2
v -0.4 1.7 -0.2
v -0.3 1.7 -0.2
v 0.3 1.7 -0.2
v 0.4 1.7 -0.2
v 0.5 1.7 -0.2
v 0.6 1.7 -0.2
v -0.4 1.7 -0.3
v -0.3 1.7 -0.3
v -0.2 1.7 -0.3
v 0.2 1.7 -0.3
v 0.3 1.7 -0.3
v 0.4 1.7 -0.3
v -0.3 1.7 -0.4
v -0.2 1.7 -0.4
v 0.2 1.7 -0.4
v 0.3 1.7 -0.4
v -0.2 1.8 0.3
v 0.2 1.8 0.3
v -0.3 1.8 0.2
v -0.2 1.8 0.2
v 0.2 1.8 0.2
v 0.3 1.8 0.2
v -0.5 1.8 0.1
v -0.3 1.8 0.1
v -0.2 1.8 0.1
v 0.2 1.8 0.1
v 0.3 1.8 0.1
v 0.5 1.8 0.1
v -0.6 1.8 0
v -0.5 1.8 0
v -0.3 1.8 0
v 0.3 1.8 0
v 0.5 1.8 0
v 0.6 1.8 0
v -0.6 1.8 -0.1
v -0.5 1.8 -0.1
v -0.3 1.8 -0.1
v 0.3 1.8 -0.1
v 0.5 1.8 -0.1
v 0.6 1.8 -0.1
v -0.5 1.8 -0.2
v -0.3 1.8 -0.2
v -0.2 1.8 -0.2
v 0.2 1.8 -0.2
v 0.3 1.8 -0.2
v 0.5 1.8 -0.2
v -0.3 1.8 -0.3
v -0.2 1.8 -0.3
v 0.2 1.8 -0.3
v 0.3 1.8 -0.3
v -0.2 1.8 -0.4
v 0.2 1.8 -0.4
v -0.2 1.8 -0.5
v 0.2 1.8 -0.5
v -0.5 1.9 0
v -0.3 1.9 0
v 0.3 1.9 0
v 0.5 1.9 0
v -0.5 1.9 -0.1
v -0.3 1.9 -0.1
v 0.3 1.9 -0.1
v 0.5 1.9 -0.1

# faces
f 3/1/1 2/1/1 1/1/1
f 4/1/1 2/1/1 3/1/1
f 9/1/1 6/1/1 5/1/1
f 10/1/1 6/1/1 9/1/1
f 11/1/1 8/1/1 7/1/1
f 12/1/1 8/1/1 11/1/1
f 13/1/1 11/1/1 10/1/1
f 14/1/1 11/1/1 13/1/1
f 17/1/1 16/1/1 15/1/1
f 18/1/1 16/1/1 17/1/1
f 23/2/1 20/2/1 19/2/1
f 24/2/1 20/2/1 23/2/1
f 25/2/1 22/2/1 21/2/1
f 26/2/1 22/2/1 25/2/1
f 27/1/1 25/1/1 24/1/1
f 28/1/1 25/1/1 27/1/1
f 33/2/1 30/2/1 29/2/1
f 34/2/1 30/2/1 33/2/1
f 35/2/1 32/2/1 31/2/1
f 36/2/1 32/2/1 35/2/1
f 37/2/1 35/2/1 34/2/1
f 38/2/1 35/2/1 37/2/1
f 39/2/1 35/2/1 38/2/1
f 40/2/1 35/2/1 39/2/1
f 45/1/1 42/1/1 41/1/1
f 46/1/1 42/1/1 45/1/1
f 47/1/1 42/1/1 46/1/1
f 48/1/1 44/1/1 43/1/1
f 49/1/1 44/1/1 48/1/1
f 50/1/1 44/1/1 49/1/1
f 51/1/1 47/1/1 46/1/1
f 52/1/1 47/1/1 51/1/1
f 55/1/1 49/1/1 48/1/1
f 56/1/1 49/1/1 55/1/1
f 58/2/1 53/2/1 52/2/1
f 59/1/1 58/1/1 57/1/1
f 60/2/1 53/2/1 58/2/1
f 60/1/1 58/1/1 59/1/1
f 61/2/1 53/2/1 60/2/1
f 62/2/1 53/2/1 61/2/1
f 65/2/1 55/2/1 54/2/1
f 66/2/1 55/2/1 65/2/1
f 67/2/1 63/2/1 62/2/1
f 68/2/1 63/2/1 67/2/1
f 69/2/1 65/2/1 64/2/1
f 70/2/1 65/2/1 69/2/1
f 75/1/1 74/1/1 73/1/1
f 76/1/1 74/1/1 75/1/1
f 77/1/1 72/1/1 71/1/1
f 78/1/1 72/1/1 77/1/1
f 84/2/1 80/2/1 79/2/1
f 85/2/1 80/2/1 84/2/1
f 86/2/1 82/2/1 81/2/1
f 87/1/1 83/1/1 82/1/1
f 87/2/1 82/2/1 86/2/1
f 88/1/1 83/1/1 87/1/1
f 91/1/1 90/1/1 89/1/1
f 92/1/1 90/1/1 91/1/1
f 95/2/1 94/2/1 93/2/1
f 96/2/1 94/2/1 95/2/1
f 101/2/1 98/2/1 97/2/1
f 102/2/1 98/2/1 101/2/1
f 103/2/1 100/2/1 99/2/1
f 104/2/1 100/2/1 103/2/1
f 105/2/1 103/2/1 102/2/1
f 106/2/1 103/2/1 105/2/1
f 109/1/1 108/1/1 107/1/1
f 110/1/1 108/1/1 109/1/1
f 113/1/1 112/1/1 111/1/1
f 114/1/1 112/1/1 113/1/1
f 115/1/1 114/1/1 113/1/1
f 116/1/1 114/1/1 115/1/1
f 121/1/1 118/1/1 117/1/1
f 122/1/1 118/1/1 121/1/1
f 123/1/1 120/1/1 119/1/1
f 124/1/1 120/1/1 123/1/1
f 125/1/2 126/1/2 129/1/2
f 129/1/2 126/1/2 130/1/2
f 127/1/2 128/1/2 131/1/2
f 131/1/2 128/1/2 132/1/2
f 133/1/2 134/1/2 135/1/2
f 135/1/2 134/1/2 136/1/2
f 135/1/2 136/1/2 137/1/2
f 137/1/2 136/1/2 138/1/2
f 139/2/2 140/2/2 143/2/2
f 143/2/2 140/2/2 144/2/2
f 141/2/2 142/2/2 145/2/2
f 145/2/2 142/2/2 146/2/2
f 144/2/2 145/2/2 147/2/2
f 147/2/2 145/2/2 148/2/2
f 149/1/2 150/1/2 151/1/2
f 151/1/2 150/1/2 152/1/2
f 153/2/2 154/2/2 155/2/2
f 155/2/2 154/2/2 156/2/2
f 157/1/2 158/1/2 159/1/2
f 159/1/2 158/1/2 160/1/2
f 163/1/2 164/1/2 165/1/2
f 165/1/2 164/1/2 166/1/2
f 161/1/2 162/1/2 167/1/2
f 167/1/2 162/1/2 168/1/2
f 169/2/2 170/2/2 174/2/2
f 174/2/2 170/2/2 175/2/2
f 171/2/2 172/2/2 176/2/2
f 172/1/2 173/1/2 177/1/2
f 176/2/2 172/2/2 177/2/2
f 177/1/2 173/1/2 178/1/2
f 179/1/2 180/1/2 183/1/2
f 183/1/2 180/1/2 184/1/2
f 184/1/2 180/1/2 185/1/2
f 181/1/2 182/1/2 186/1/2
f 186/1/2 182/1/2 187/1/2
f 187/1/2 182/1/2 188/1/2
f 184/1/2 185/1/2 189/1/2
f 189/1/2 185/1/2 190/1/2
f 186/1/2 187/1/2 193/1/2
f 193/1/2 187/1/2 194/1/2
f 190/2/2 191/2/2 196/2/2
f 195/1/2 196/1/2 197/1/2
f 196/2/2 191/2/2 198/2/2
f 197/1/2 196/1/2 198/1/2
f 198/2/2 191/2/2 199/2/2
f 199/2/2 191/2/2 200/2/2
f 192/2/2 193/2/2 203/2/2
f 203/2/2 193/2/2 204/2/2
f 200/2/2 201/2/2 205/2/2
f 205/2/2 201/2/2 206/2/2
f 202/2/2 203/2/2 207/2/2
f 207/2/2 203/2/2 208/2/2
f 209/2/2 210/2/2 213/2/2
f 213/2/2 210/2/2 214/2/2
f 211/2/2 212/2/2 215/2/2
f 215/2/2 212/2/2 216/2/2
f 214/2/2 215/2/2 217/2/2
f 217/2/2 215/2/2 218/2/2
f 218/2/2 215/2/2 219/2/2
f 219/2/2 215/2/2 220/2/2
f 221/1/2 222/1/2 223/1/2
f 223/1/2 222/1/2 224/1/2
f 225/2/2 226/2/2 229/2/2
f 229/2/2 226/2/2 230/2/2
f 227/2/2 228/2/2 231/2/2
f 231/2/2 228/2/2 232/2/2
f 230/1/2 231/1/2 233/1/2
f 233/1/2 231/1/2 234/1/2
f 235/1/2 236/1/2 237/1/2
f 237/1/2 236/1/2 238/1/2
f 239/1/2 240/1/2 243/1/2
f 243/1/2 240/1/2 244/1/2
f 241/1/2 242/1/2 245/1/2
f 245/1/2 242/1/2 246/1/2
f 244/1/2 245/1/2 247/1/2
f 247/1/2 245/1/2 248/1/2
f 251/1/3 250/1/3 249/1/3
f 252/1/3 250/1/3 251/1/3
f 257/1/3 256/1/3 255/1/3
f 259/1/3 258/1/3 257/1/3
f 261/1/3 259/1/3 257/1/3
f 261/1/3 260/1/3 259/1/3
f 262/1/3 260/1/3 261/1/3
f 263/1/3 257/1/3 255/1/3
f 263/1/3 261/1/3 257/1/3
f 264/1/3 261/1/3 263/1/3
f 265/1/3 254/1/3 253/1/3
f 266/1/3 254/1/3 265/1/3
f 267/1/3 263/1/3 255/1/3
f 268/1/3 263/1/3 267/1/3
f 271/2/3 270/2/3 269/2/3
f 272/2/3 270/2/3 271/2/3
f 276/2/3 275/2/3 274/2/3
f 277/2/3 275/2/3 276/2/3
f 278/2/3 275/2/3 277/2/3
f 280/2/3 279/2/3 278/2/3
f 280/2/3 278/2/3 277/2/3
f 281/2/3 279/2/3 280/2/3
f 283/2/3 279/2/3 281/2/3
f 285/2/3 283/2/3 282/2/3
f 286/2/3 279/2/3 283/2/3
f 286/2/3 283/2/3 285/2/3
f 287/2/3 279/2/3 286/2/3
f 289/2/3 273/2/3 272/2/3
f 290/2/3 273/2/3 289/2/3
f 291/2/3 285/2/3 284/2/3
f 291/2/3 286/2/3 285/2/3
f 292/2/3 286/2/3 291/2/3
f 293/2/3 289/2/3 288/2/3
f 294/2/3 289/2/3 293/2/3
f 297/1/3 296/1/3 295/1/3
f 299/1/3 297/1/3 295/1/3
f 299/1/3 298/1/3 297/1/3
f 300/1/3 298/1/3 299/1/3
f 301/1/3 298/1/3 300/1/3
f 303/2/3 302/2/3 301/2/3
f 304/2/3 302/2/3 303/2/3
f 306/2/3 305/2/3 304/2/3
f 307/2/3 305/2/3 306/2/3
f 311/2/3 309/2/3 308/2/3
f 312/2/3 309/2/3 311/2/3
f 315/2/3 311/2/3 310/2/3
f 316/2/3 311/2/3 315/2/3
f 317/1/3 314/1/3 313/1/3
f 317/1/3 315/1/3 314/1/3
f 318/1/3 315/1/3 317/1/3
f 319/1/3 317/1/3 313/1/3
f 320/1/3 317/1/3 319/1/3
f 323/1/3 322/1/3 321/1/3
f 324/1/3 322/1/3 323/1/3
f 326/2/3 325/2/3 324/2/3
f 327/2/3 325/2/3 326/2/3
f 328/2/3 325/2/3 327/2/3
f 331/2/3 330/2/3 329/2/3
f 333/2/3 330/2/3 331/2/3
f 334/2/3 330/2/3 333/2/3
f 335/1/3 333/1/3 332/1/3
f 336/1/3 333/1/3 335/1/3
f 339/1/3 338/1/3 337/1/3
f 340/1/3 338/1/3 339/1/3
f 342/1/3 341/1/3 340/1/3
f 343/1/3 341/1/3 342/1/3
f 347/1/3 345/1/3 344/1/3
f 348/1/3 345/1/3 347/1/3
f 349/1/3 347/1/3 346/1/3
f 350/1/3 347/1/3 349/1/3
f 353/1/3 352/1/3 351/1/3
f 354/1/3 352/1/3 353/1/3
f 357/1/3 356/1/3 355/1/3
f 358/1/3 356/1/3 357/1/3
f 361/2/3 360/2/3 359/2/3
f 362/2/3 360/2/3 361/2/3
f 365/2/3 364/2/3 363/2/3
f 366/2/3 364/2/3 365/2/3
f 369/2/3 367/2/3 366/2/3
f 370/2/3 367/2/3 369/2/3
f 371/2/3 369/2/3 368/2/3
f 372/2/3 369/2/3 371/2/3
f 376/1/3 374/1/3 373/1/3
f 376/1/3 375/1/3 374/1/3
f 377/1/3 375/1/3 376/1/3
f 378/1/3 375/1/3 377/1/3
f 379/1/4 380/1/4 382/1/4
f 380/1/4 381/1/4 382/1/4
f 382/1/4 381/1/4 383/1/4
f 383/1/4 381/1/4 384/1/4
f 385/2/4 386/2/4 387/2/4
f 387/2/4 386/2/4 388/2/4
f 388/2/4 389/2/4 391/2/4
f 391/2/4 389/2/4 392/2/4
f 390/2/4 391/2/4 393/2/4
f 393/2/4 391/2/4 394/2/4
f 395/2/4 396/2/4 397/2/4
f 397/2/4 396/2/4 398/2/4
f 399/1/4 400/1/4 401/1/4
f 401/1/4 400/1/4 402/1/4
f 403/1/4 404/1/4 405/1/4
f 405/1/4 404/1/4 406/1/4
f 407/1/4 408/1/4 409/1/4
f 409/1/4 408/1/4 410/1/4
f 410/1/4 411/1/4 412/1/4
f 412/1/4 411/1/4 413/1/4
f 414/1/4 415/1/4 417/1/4
f 417/1/4 415/1/4 418/1/4
f 416/1/4 417/1/4 419/1/4
f 419/1/4 417/1/4 420/1/4
f 421/1/4 422/1/4 423/1/4
f 423/1/4 422/1/4 424/1/4
f 424/2/4 425/2/4 426/2/4
f 426/2/4 425/2/4 427/2/4
f 427/2/4 425/2/4 428/2/4
f 429/2/4 430/2/4 431/2/4
f 431/2/4 430/2/4 433/2/4
f 433/2/4 430/2/4 434/2/4
f 432/1/4 433/1/4 435/1/4
f 435/1/4 433/1/4 436/1/4
f 437/1/4 438/1/4 439/1/4
f 437/1/4 439/1/4 441/1/4
f 439/1/4 440/1/4 441/1/4
f 441/1/4 440/1/4 442/1/4
f 442/1/4 440/1/4 443/1/4
f 443/2/4 444/2/4 445/2/4
f 445/2/4 444/2/4 446/2/4
f 446/2/4 447/2/4 448/2/4
f 448/2/4 447/2/4 449/2/4
f 450/2/4 451/2/4 453/2/4
f 453/2/4 451/2/4 454/2/4
f 452/2/4 453/2/4 457/2/4
f 457/2/4 453/2/4 458/2/4
f 455/1/4 456/1/4 459/1/4
f 456/1/4 457/1/4 459/1/4
f 459/1/4 457/1/4 460/1/4
f 455/1/4 459/1/4 461/1/4
f 461/1/4 459/1/4 462/1/4
f 463/2/4 464/2/4 465/2/4
f 465/2/4 464/2/4 466/2/4
f 466/2/4 467/2/4 468/2/4
f 468/2/4 467/2/4 469/2/4
f 469/2/4 467/2/4 470/2/4
f 466/2/4 468/2/4 471/2/4
f 469/2/4 470/2/4 472/2/4
f 472/2/4 470/2/4 473/2/4
f 466/2/4 471/2/4 475/2/4
f 471/2/4 472/2/4 475/2/4
f 472/2/4 473/2/4 475/2/4
f 475/2/4 473/2/4 476/2/4
f 474/2/4 475/2/4 477/2/4
f 477/2/4 475/2/4 478/2/4
f 481/1/4 482/1/4 485/1/4
f 485/1/4 482/1/4 486/1/4
f 483/1/4 484/1/4 487/1/4
f 487/1/4 484/1/4 488/1/4
f 479/1/4 480/1/4 489/1/4
f 489/1/4 480/1/4 490/1/4
f 491/1/4 492/1/4 493/1/4
f 493/1/4 492/1/4 494/1/4
f 497/1/5 496/1/5 495/1/5
f 498/1/5 496/1/5 497/1/5
f 503/1/5 500/1/5 499/1/5
f 504/1/5 500/1/5 503/1/5
f 505/1/5 502/1/5 501/1/5
f 506/1/5 502/1/5 505/1/5
f 509/1/5 508/1/5 507/1/5
f 510/1/5 508/1/5 509/1/5
f 515/2/5 512/2/5 511/2/5
f 516/2/5 512/2/5 515/2/5
f 517/2/5 514/2/5 513/2/5
f 518/2/5 514/2/5 517/2/5
f 523/2/5 520/2/5 519/2/5
f 524/2/5 520/2/5 523/2/5
f 525/2/5 522/2/5 521/2/5
f 526/2/5 522/2/5 525/2/5
f 530/2/5 528/2/5 527/2/5
f 531/2/5 528/2/5 530/2/5
f 533/2/5 530/2/5 529/2/5
f 534/2/5 530/2/5 533/2/5
f 535/2/5 532/2/5 531/2/5
f 536/2/5 532/2/5 535/2/5
f 537/2/5 535/2/5 534/2/5
f 538/2/5 535/2/5 537/2/5
f 541/1/5 540/1/5 539/1/5
f 542/1/5 540/1/5 541/1/5
f 545/1/5 544/1/5 543/1/5
f 546/1/5 544/1/5 545/1/5
f 551/1/5 548/1/5 547/1/5
f 552/1/5 548/1/5 551/1/5
f 553/1/5 550/1/5 549/1/5
f 554/1/5 550/1/5 553/1/5
f 559/1/5 556/1/5 555/1/5
f 560/1/5 556/1/5 559/1/5
f 561/1/5 558/1/5 557/1/5
f 562/1/5 558/1/5 561/1/5
f 567/2/5 564/2/5 563/2/5
f 568/2/5 564/2/5 567/2/5
f 572/2/5 566/2/5 565/2/5
f 573/2/5 570/2/5 569/2/5
f 575/1/5 572/1/5 571/1/5
f 576/2/5 566/2/5 572/2/5
f 576/1/5 572/1/5 575/1/5
f 577/1/5 574/1/5 573/1/5
f 577/2/5 573/2/5 569/2/5
f 578/1/5 574/1/5 577/1/5
f 579/2/5 566/2/5 576/2/5
f 580/2/5 566/2/5 579/2/5
f 581/2/5 567/2/5 563/2/5
f 582/2/5 564/2/5 568/2/5
f 583/2/5 577/2/5 569/2/5
f 584/2/5 577/2/5 583/2/5
f 585/2/5 581/2/5 563/2/5
f 585/2/5 582/2/5 581/2/5
f 586/2/5 564/2/5 582/2/5
f 586/2/5 582/2/5 585/2/5
f 589/1/5 588/1/5 587/1/5
f 590/1/5 588/1/5 589/1/5
f 591/1/6 592/1/6 593/1/6
f 593/1/6 592/1/6 594/1/6
f 595/1/6 596/1/6 599/1/6
f 599/1/6 596/1/6 600/1/6
f 597/1/6 598/1/6 601/1/6
f 601/1/6 598/1/6 602/1/6
f 603/1/6 604/1/6 605/1/6
f 605/1/6 604/1/6 606/1/6
f 607/1/6 608/1/6 610/1/6
f 610/1/6 608/1/6 611/1/6
f 609/2/6 610/2/6 614/2/6
f 614/2/6 610/2/6 615/2/6
f 611/2/6 612/2/6 616/2/6
f 616/2/6 612/2/6 617/2/6
f 613/1/6 614/1/6 619/1/6
f 619/1/6 614/1/6 620/1/6
f 617/1/6 618/1/6 623/1/6
f 623/1/6 618/1/6 624/1/6
f 620/2/6 621/2/6 625/2/6
f 625/2/6 621/2/6 626/2/6
f 622/2/6 623/2/6 627/2/6
f 627/2/6 623/2/6 628/2/6
f 626/1/6 627/1/6 629/1/6
f 629/1/6 627/1/6 630/1/6
f 631/1/6 632/1/6 635/1/6
f 635/1/6 632/1/6 636/1/6
f 633/1/6 634/1/6 637/1/6
f 637/1/6 634/1/6 638/1/6
f 639/1/6 640/1/6 643/1/6
f 643/1/6 640/1/6 644/1/6
f 641/1/6 642/1/6 645/1/6
f 645/1/6 642/1/6 646/1/6
f 647/1/6 648/1/6 649/1/6
f 649/1/6 648/1/6 650/1/6
f 651/1/6 652/1/6 655/1/6
f 655/1/6 652/1/6 656/1/6
f 653/2/6 654/2/6 660/2/6
f 660/2/6 654/2/6 661/2/6
f 657/2/6 658/2/6 662/2/6
f 662/2/6 658/2/6 663/2/6
f 659/2/6 660/2/6 667/2/6
f 667/2/6 660/2/6 668/2/6
f 663/2/6 664/2/6 669/2/6
f 669/2/6 664/2/6 670/2/6
f 665/1/6 666/1/6 673/1/6
f 673/1/6 666/1/6 674/1/6
f 671/1/6 672/1/6 675/1/6
f 675/1/6 672/1/6 676/1/6
f 677/1/6 678/1/6 681/1/6
f 681/1/6 678/1/6 682/1/6
f 679/1/6 680/1/6 687/1/6
f 687/1/6 680/1/6 688/1/6
f 683/2/6 684/2/6 689/2/6
f 689/2/6 684/2/6 690/2/6
f 685/2/6 686/2/6 693/2/6
f 693/2/6 686/2/6 694/2/6
f 690/2/6 691/2/6 695/2/6
f 695/2/6 691/2/6 696/2/6
f 692/2/6 693/2/6 697/2/6
f 697/2/6 693/2/6 698/2/6
f 699/2/6 700/2/6 702/2/6
f 702/2/6 700/2/6 703/2/6
f 701/2/6 702/2/6 706/2/6
f 703/2/6 704/2/6 706/2/6
f 702/2/6 703/2/6 706/2/6
f 706/2/6 704/2/6 707/2/6
f 707/2/6 704/2/6 708/2/6
f 708/2/6 704/2/6 709/2/6
f 705/2/6 706/2/6 712/2/6
f 706/2/6 707/2/6 712/2/6
f 712/2/6 707/2/6 713/2/6
f 708/2/6 709/2/6 714/2/6
f 709/2/6 710/2/6 714/2/6
f 714/2/6 710/2/6 715/2/6
f 711/1/6 712/1/6 717/1/6
f 717/1/6 712/1/6 718/1/6
f 713/2/6 707/2/6 719/2/6
f 708/2/6 714/2/6 720/2/6
f 715/1/6 716/1/6 721/1/6
f 721/1/6 716/1/6 722/1/6
f 718/2/6 719/2/6 723/2/6
f 719/2/6 707/2/6 724/2/6
f 723/2/6 719/2/6 724/2/6
f 724/2/6 707/2/6 725/2/6
f 708/2/6 720/2/6 726/2/6
f 720/2/6 721/2/6 726/2/6
f 726/2/6 721/2/6 727/2/6
f 727/2/6 721/2/6 728/2/6
f 724/2/6 725/2/6 729/2/6
f 726/2/6 727/2/6 729/2/6
f 725/2/6 726/2/6 729/2/6
f 729/2/6 727/2/6 730/2/6
f 730/2/6 727/2/6 731/2/6
f 731/2/6 727/2/6 732/2/6
f 730/2/6 731/2/6 733/2/6
f 733/2/6 731/2/6 734/2/6
f 733/1/6 734/1/6 735/1/6
f 735/1/6 734/1/6 736/1/6
f 737/1/6 738/1/6 741/1/6
f 741/1/6 738/1/6 742/1/6
f 739/1/6 740/1/6 743/1/6
f 743/1/6 740/1/6 744/1/6
