# MagicaVoxel @ Ephtracy

# group
o 

# material
mtllib plate_cuirass.mtl
usemtl palette

# normals
vn -1 0 0
vn 1 0 0
vn 0 0 1
vn 0 0 -1
vn 0 -1 0
vn 0 1 0

# texcoords
vt 0.974609 0.5
vt 0.986328 0.5
vt 0.990234 0.5

# verts
v -0.4 0.6 0
v -0.4 0.6 -0.3
v -0.4 0.7 0.2
v -0.4 0.7 0
v -0.4 0.7 -0.3
v -0.4 0.8 0.2
v -0.4 0.8 0
v -0.4 1.1 0.2
v -0.4 1.1 0.1
v -0.4 1.1 -0.2
v -0.4 1.1 -0.3
v -0.4 1.2 0.1
v -0.4 1.2 -0.2
v -0.3 0.6 -0.3
v -0.3 0.6 -0.4
v -0.3 0.7 0.3
v -0.3 0.7 0.2
v -0.3 0.7 -0.3
v -0.3 0.7 -0.4
v -0.3 0.8 0.2
v -0.3 1 0.3
v -0.3 1 0.2
v -0.3 1.1 0.3
v -0.3 1.1 0.2
v -0.3 1.1 0.1
v -0.3 1.1 -0.2
v -0.3 1.1 -0.3
v -0.3 1.1 -0.4
v -0.3 1.2 0.2
v -0.3 1.2 0.1
v -0.3 1.2 -0.2
v -0.3 1.2 -0.3
v -0.2 0.6 0.3
v -0.2 0.6 0.2
v -0.2 0.7 0.3
v -0.2 0.7 0.2
v -0.2 0.7 -0.4
v -0.2 0.7 -0.5
v -0.2 0.8 0.4
v -0.2 0.8 0.3
v -0.2 1 0.3
v -0.2 1.1 0.4
v -0.2 1.1 0.3
v -0.2 1.1 0.2
v -0.2 1.1 -0.3
v -0.2 1.1 -0.4
v -0.2 1.1 -0.5
v -0.2 1.2 0.3
v -0.2 1.2 0.2
v -0.2 1.2 -0.3
v -0.2 1.2 -0.4
v -0.1 0.7 0.4
v -0.1 0.7 0.3
v -0.1 0.8 0.4
v -0.1 0.8 0.3
v -0.1 1.1 0.4
v -0.1 1.1 0.3
v -0.1 1.2 0.4
v -0.1 1.2 0.3
v 0.2 1.1 0.1
v 0.2 1.1 -0.2
v 0.2 1.2 0.1
v 0.2 1.2 -0.2
v 0.3 0.6 0
v 0.3 0.6 -0.3
v 0.3 0.7 0.2
v 0.3 0.7 0
v 0.3 0.7 -0.3
v 0.3 0.8 0.2
v 0.3 0.8 0
v 0.3 1 0.2
v 0.3 1.1 0.2
v 0.3 1.1 -0.3
v -0.3 0.6 0
v -0.3 0.6 -0.3
v -0.3 0.7 0.2
v -0.3 0.7 0
v -0.3 0.7 -0.3
v -0.3 0.8 0.2
v -0.3 0.8 0
v -0.3 1 0.2
v -0.3 1.1 0.2
v -0.3 1.1 -0.3
v -0.2 1.1 0.1
v -0.2 1.1 -0.2
v -0.2 1.2 0.1
v -0.2 1.2 -0.2
v 0.1 0.7 0.4
v 0.1 0.7 0.3
v 0.1 0.8 0.4
v 0.1 0.8 0.3
v 0.1 1.1 0.4
v 0.1 1.1 0.3
v 0.1 1.2 0.4
v 0.1 1.2 0.3
v 0.2 0.6 0.3
v 0.2 0.6 0.2
v 0.2 0.7 0.3
v 0.2 0.7 0.2
v 0.2 0.7 -0.4
v 0.2 0.7 -0.5
v 0.2 0.8 0.4
v 0.2 0.8 0.3
v 0.2 1 0.3
v 0.2 1.1 0.4
v 0.2 1.1 0.3
v 0.2 1.1 0.2
v 0.2 1.1 -0.3
v 0.2 1.1 -0.4
v 0.2 1.1 -0.5
v 0.2 1.2 0.3
v 0.2 1.2 0.2
v 0.2 1.2 -0.3
v 0.2 1.2 -0.4
v 0.3 0.6 -0.3
v 0.3 0.6 -0.4
v 0.3 0.7 0.3
v 0.3 0.7 0.2
v 0.3 0.7 -0.3
v 0.3 0.7 -0.4
v 0.3 0.8 0.2
v 0.3 1 0.3
v 0.3 1 0.2
v 0.3 1.1 0.3
v 0.3 1.1 0.2
v 0.3 1.1 0.1
v 0.3 1.1 -0.2
v 0.3 1.1 -0.3
v 0.3 1.1 -0.4
v 0.3 1.2 0.2
v 0.3 1.2 0.1
v 0.3 1.2 -0.2
v 0.3 1.2 -0.3
v 0.4 0.6 0
v 0.4 0.6 -0.3
v 0.4 0.7 0.2
v 0.4 0.7 0
v 0.4 0.7 -0.3
v 0.4 0.8 0.2
v 0.4 0.8 0
v 0.4 1.1 0.2
v 0.4 1.1 0.1
v 0.4 1.1 -0.2
v 0.4 1.1 -0.3
v 0.4 1.2 0.1
v 0.4 1.2 -0.2
v -0.2 0.8 0.4
v -0.2 1.1 0.4
v -0.1 0.7 0.4
v -0.1 0.8 0.4
v -0.1 1.1 0.4
v -0.1 1.2 0.4
v 0.1 0.7 0.4
v 0.1 0.8 0.4
v 0.1 1.1 0.4
v 0.1 1.2 0.4
v 0.2 0.8 0.4
v 0.2 1.1 0.4
v -0.3 0.7 0.3
v -0.3 1 0.3
v -0.3 1.1 0.3
v -0.2 0.6 0.3
v -0.2 0.7 0.3
v -0.2 0.8 0.3
v -0.2 1 0.3
v -0.2 1.1 0.3
v -0.2 1.2 0.3
v -0.1 0.7 0.3
v -0.1 0.8 0.3
v -0.1 1.1 0.3
v -0.1 1.2 0.3
v 0.1 0.7 0.3
v 0.1 0.8 0.3
v 0.1 1.1 0.3
v 0.1 1.2 0.3
v 0.2 0.6 0.3
v 0.2 0.7 0.3
v 0.2 0.8 0.3
v 0.2 1 0.3
v 0.2 1.1 0.3
v 0.2 1.2 0.3
v 0.3 0.7 0.3
v 0.3 1 0.3
v 0.3 1.1 0.3
v -0.4 0.7 0.2
v -0.4 0.8 0.2
v -0.4 1.1 0.2
v -0.3 0.7 0.2
v -0.3 0.8 0.2
v -0.3 1 0.2
v -0.3 1.1 0.2
v -0.3 1.2 0.2
v -0.2 1.1 0.2
v -0.2 1.2 0.2
v 0.2 1.1 0.2
v 0.2 1.2 0.2
v 0.3 0.7 0.2
v 0.3 0.8 0.2
v 0.3 1 0.2
v 0.3 1.1 0.2
v 0.3 1.2 0.2
v 0.4 0.7 0.2
v 0.4 0.8 0.2
v 0.4 1.1 0.2
v -0.4 1.1 0.1
v -0.4 1.2 0.1
v -0.3 1.1 0.1
v -0.3 1.2 0.1
v 0.3 1.1 0.1
v 0.3 1.2 0.1
v 0.4 1.1 0.1
v 0.4 1.2 0.1
v -0.4 0.6 0
v -0.4 0.7 0
v -0.3 0.6 0
v -0.3 0.7 0
v 0.3 0.6 0
v 0.3 0.7 0
v 0.4 0.6 0
v 0.4 0.7 0
v -0.2 1.1 -0.2
v -0.2 1.2 -0.2
v 0.2 1.1 -0.2
v 0.2 1.2 -0.2
v -0.3 0.6 -0.3
v -0.3 0.7 -0.3
v -0.3 1.1 -0.3
v 0.3 0.6 -0.3
v 0.3 0.7 -0.3
v 0.3 1.1 -0.3
v -0.3 0.7 0.2
v -0.3 0.8 0.2
v -0.3 1 0.2
v -0.3 1.1 0.2
v -0.2 0.6 0.2
v -0.2 0.7 0.2
v -0.2 0.8 0.2
v -0.2 1 0.2
v -0.2 1.1 0.2
v -0.1 0.7 0.2
v -0.1 0.8 0.2
v 0.1 0.7 0.2
v 0.1 0.8 0.2
v 0.2 0.6 0.2
v 0.2 0.7 0.2
v 0.2 0.8 0.2
v 0.2 1 0.2
v 0.2 1.1 0.2
v 0.3 0.7 0.2
v 0.3 0.8 0.2
v 0.3 1 0.2
v 0.3 1.1 0.2
v -0.2 1.1 0.1
v -0.2 1.2 0.1
v 0.2 1.1 0.1
v 0.2 1.2 0.1
v -0.4 1.1 -0.2
v -0.4 1.2 -0.2
v -0.3 1.1 -0.2
v -0.3 1.2 -0.2
v 0.3 1.1 -0.2
v 0.3 1.2 -0.2
v 0.4 1.1 -0.2
v 0.4 1.2 -0.2
v -0.4 0.6 -0.3
v -0.4 0.7 -0.3
v -0.4 1.1 -0.3
v -0.3 0.6 -0.3
v -0.3 0.7 -0.3
v -0.3 1.1 -0.3
v -0.3 1.2 -0.3
v -0.2 1.1 -0.3
v -0.2 1.2 -0.3
v 0.2 1.1 -0.3
v 0.2 1.2 -0.3
v 0.3 0.6 -0.3
v 0.3 0.7 -0.3
v 0.3 1.1 -0.3
v 0.3 1.2 -0.3
v 0.4 0.6 -0.3
v 0.4 0.7 -0.3
v 0.4 1.1 -0.3
v -0.3 0.6 -0.4
v -0.3 0.7 -0.4
v -0.3 1.1 -0.4
v -0.2 0.7 -0.4
v -0.2 1.1 -0.4
v -0.2 1.2 -0.4
v 0.2 0.7 -0.4
v 0.2 1.1 -0.4
v 0.2 1.2 -0.4
v 0.3 0.6 -0.4
v 0.3 0.7 -0.4
v 0.3 1.1 -0.4
v -0.2 0.7 -0.5
v -0.2 1.1 -0.5
v 0.2 0.7 -0.5
v 0.2 1.1 -0.5
v -0.2 0.6 0.3
v 0.2 0.6 0.3
v -0.2 0.6 0.2
v 0.2 0.6 0.2
v -0.4 0.6 0
v -0.3 0.6 0
v 0.3 0.6 0
v 0.4 0.6 0
v -0.4 0.6 -0.3
v -0.3 0.6 -0.3
v 0.3 0.6 -0.3
v 0.4 0.6 -0.3
v -0.3 0.6 -0.4
v 0.3 0.6 -0.4
v -0.1 0.7 0.4
v 0.1 0.7 0.4
v -0.3 0.7 0.3
v -0.2 0.7 0.3
v -0.1 0.7 0.3
v 0.1 0.7 0.3
v 0.2 0.7 0.3
v 0.3 0.7 0.3
v -0.4 0.7 0.2
v -0.3 0.7 0.2
v -0.2 0.7 0.2
v 0.2 0.7 0.2
v 0.3 0.7 0.2
v 0.4 0.7 0.2
v -0.4 0.7 0
v -0.3 0.7 0
v 0.3 0.7 0
v 0.4 0.7 0
v -0.2 0.7 -0.4
v 0.2 0.7 -0.4
v -0.2 0.7 -0.5
v 0.2 0.7 -0.5
v -0.2 0.8 0.4
v -0.1 0.8 0.4
v 0.1 0.8 0.4
v 0.2 0.8 0.4
v -0.2 0.8 0.3
v -0.1 0.8 0.3
v 0.1 0.8 0.3
v 0.2 0.8 0.3
v -0.3 1.1 0.2
v -0.2 1.1 0.2
v 0.2 1.1 0.2
v 0.3 1.1 0.2
v -0.2 1.1 0.1
v 0.2 1.1 0.1
v -0.2 1.1 -0.2
v 0.2 1.1 -0.2
v -0.3 1.1 -0.3
v 0.3 1.1 -0.3
v -0.2 1.1 0.4
v -0.1 1.1 0.4
v 0.1 1.1 0.4
v 0.2 1.1 0.4
v -0.3 1.1 0.3
v -0.2 1.1 0.3
v -0.1 1.1 0.3
v 0.1 1.1 0.3
v 0.2 1.1 0.3
v 0.3 1.1 0.3
v -0.4 1.1 0.2
v -0.3 1.1 0.2
v -0.2 1.1 0.2
v 0.2 1.1 0.2
v 0.3 1.1 0.2
v 0.4 1.1 0.2
v -0.4 1.1 0.1
v -0.3 1.1 0.1
v 0.3 1.1 0.1
v 0.4 1.1 0.1
v -0.4 1.1 -0.2
v -0.3 1.1 -0.2
v 0.3 1.1 -0.2
v 0.4 1.1 -0.2
v -0.4 1.1 -0.3
v -0.3 1.1 -0.3
v -0.2 1.1 -0.3
v 0.2 1.1 -0.3
v 0.3 1.1 -0.3
v 0.4 1.1 -0.3
v -0.3 1.1 -0.4
v -0.2 1.1 -0.4
v 0.2 1.1 -0.4
v 0.3 1.1 -0.4
v -0.2 1.1 -0.5
v 0.2 1.1 -0.5
v -0.1 1.2 0.4
v 0.1 1.2 0.4
v -0.2 1.2 0.3
v -0.1 1.2 0.3
v 0.1 1.2 0.3
v 0.2 1.2 0.3
v -0.3 1.2 0.2
v -0.2 1.2 0.2
v 0.2 1.2 0.2
v 0.3 1.2 0.2
v -0.4 1.2 0.1
v -0.3 1.2 0.1
v -0.2 1.2 0.1
v 0.2 1.2 0.1
v 0.3 1.2 0.1
v 0.4 1.2 0.1
v -0.4 1.2 -0.2
v -0.3 1.2 -0.2
v -0.2 1.2 -0.2
v 0.2 1.2 -0.2
v 0.3 1.2 -0.2
v 0.4 1.2 -0.2
v -0.3 1.2 -0.3
v -0.2 1.2 -0.3
v 0.2 1.2 -0.3
v 0.3 1.2 -0.3
v -0.2 1.2 -0.4
v 0.2 1.2 -0.4

# faces
f 4/3/1 2/3/1 1/3/1
f 5/3/1 2/3/1 4/3/1
f 6/3/1 4/3/1 3/3/1
f 7/1/1 5/1/1 4/1/1
f 7/3/1 4/3/1 6/3/1
f 8/1/1 7/1/1 6/1/1
f 9/1/1 7/1/1 8/1/1
f 10/1/1 5/1/1 7/1/1
f 10/1/1 7/1/1 9/1/1
f 11/1/1 5/1/1 10/1/1
f 12/1/1 10/1/1 9/1/1
f 13/1/1 10/1/1 12/1/1
f 18/3/1 15/3/1 14/3/1
f 19/3/1 15/3/1 18/3/1
f 20/3/1 17/3/1 16/3/1
f 21/3/1 20/3/1 16/3/1
f 22/3/1 20/3/1 21/3/1
f 23/1/1 22/1/1 21/1/1
f 24/1/1 22/1/1 23/1/1
f 27/1/1 19/1/1 18/1/1
f 28/1/1 19/1/1 27/1/1
f 29/1/1 25/1/1 24/1/1
f 30/1/1 25/1/1 29/1/1
f 31/1/1 27/1/1 26/1/1
f 32/1/1 27/1/1 31/1/1
f 35/3/1 34/3/1 33/3/1
f 36/3/1 34/3/1 35/3/1
f 41/1/1 40/1/1 39/1/1
f 42/1/1 41/1/1 39/1/1
f 43/1/1 41/1/1 42/1/1
f 46/1/1 38/1/1 37/1/1
f 47/1/1 38/1/1 46/1/1
f 48/1/1 44/1/1 43/1/1
f 49/1/1 44/1/1 48/1/1
f 50/1/1 46/1/1 45/1/1
f 51/1/1 46/1/1 50/1/1
f 54/1/1 53/1/1 52/1/1
f 55/1/1 53/1/1 54/1/1
f 58/1/1 57/1/1 56/1/1
f 59/1/1 57/1/1 58/1/1
f 62/1/1 61/1/1 60/1/1
f 63/1/1 61/1/1 62/1/1
f 67/3/1 65/3/1 64/3/1
f 68/3/1 65/3/1 67/3/1
f 69/3/1 67/3/1 66/3/1
f 70/1/1 68/1/1 67/1/1
f 70/3/1 67/3/1 69/3/1
f 71/1/1 70/1/1 69/1/1
f 72/1/1 70/1/1 71/1/1
f 73/1/1 68/1/1 70/1/1
f 73/1/1 70/1/1 72/1/1
f 74/3/2 75/3/2 77/3/2
f 77/3/2 75/3/2 78/3/2
f 76/3/2 77/3/2 79/3/2
f 77/1/2 78/1/2 80/1/2
f 79/3/2 77/3/2 80/3/2
f 79/1/2 80/1/2 81/1/2
f 81/1/2 80/1/2 82/1/2
f 80/1/2 78/1/2 83/1/2
f 82/1/2 80/1/2 83/1/2
f 84/1/2 85/1/2 86/1/2
f 86/1/2 85/1/2 87/1/2
f 88/1/2 89/1/2 90/1/2
f 90/1/2 89/1/2 91/1/2
f 92/1/2 93/1/2 94/1/2
f 94/1/2 93/1/2 95/1/2
f 96/3/2 97/3/2 98/3/2
f 98/3/2 97/3/2 99/3/2
f 102/1/2 103/1/2 104/1/2
f 102/1/2 104/1/2 105/1/2
f 105/1/2 104/1/2 106/1/2
f 100/1/2 101/1/2 109/1/2
f 109/1/2 101/1/2 110/1/2
f 106/1/2 107/1/2 111/1/2
f 111/1/2 107/1/2 112/1/2
f 108/1/2 109/1/2 113/1/2
f 113/1/2 109/1/2 114/1/2
f 115/3/2 116/3/2 119/3/2
f 119/3/2 116/3/2 120/3/2
f 117/3/2 118/3/2 121/3/2
f 117/3/2 121/3/2 122/3/2
f 122/3/2 121/3/2 123/3/2
f 122/1/2 123/1/2 124/1/2
f 124/1/2 123/1/2 125/1/2
f 119/1/2 120/1/2 128/1/2
f 128/1/2 120/1/2 129/1/2
f 125/1/2 126/1/2 130/1/2
f 130/1/2 126/1/2 131/1/2
f 127/1/2 128/1/2 132/1/2
f 132/1/2 128/1/2 133/1/2
f 134/3/2 135/3/2 137/3/2
f 137/3/2 135/3/2 138/3/2
f 136/3/2 137/3/2 139/3/2
f 137/1/2 138/1/2 140/1/2
f 139/3/2 137/3/2 140/3/2
f 139/1/2 140/1/2 141/1/2
f 141/1/2 140/1/2 142/1/2
f 140/1/2 138/1/2 143/1/2
f 142/1/2 140/1/2 143/1/2
f 143/1/2 138/1/2 144/1/2
f 142/1/2 143/1/2 145/1/2
f 145/1/2 143/1/2 146/1/2
f 150/1/3 148/1/3 147/1/3
f 151/1/3 148/1/3 150/1/3
f 153/1/3 150/1/3 149/1/3
f 153/1/3 152/1/3 151/1/3
f 153/1/3 151/1/3 150/1/3
f 154/1/3 152/1/3 153/1/3
f 155/1/3 152/1/3 154/1/3
f 156/1/3 152/1/3 155/1/3
f 157/1/3 155/1/3 154/1/3
f 158/1/3 155/1/3 157/1/3
f 163/3/3 160/3/3 159/3/3
f 164/3/3 160/3/3 163/3/3
f 165/1/3 161/1/3 160/1/3
f 165/3/3 160/3/3 164/3/3
f 166/1/3 161/1/3 165/1/3
f 168/1/3 164/1/3 163/1/3
f 168/3/3 163/3/3 162/3/3
f 169/1/3 164/1/3 168/1/3
f 170/1/3 167/1/3 166/1/3
f 171/1/3 167/1/3 170/1/3
f 172/3/3 168/3/3 162/3/3
f 176/3/3 172/3/3 162/3/3
f 177/1/3 173/1/3 172/1/3
f 177/3/3 172/3/3 176/3/3
f 178/1/3 173/1/3 177/1/3
f 180/1/3 175/1/3 174/1/3
f 181/1/3 175/1/3 180/1/3
f 182/3/3 179/3/3 178/3/3
f 182/3/3 178/3/3 177/3/3
f 183/1/3 180/1/3 179/1/3
f 183/3/3 179/3/3 182/3/3
f 184/1/3 180/1/3 183/1/3
f 188/3/3 186/3/3 185/3/3
f 189/1/3 187/1/3 186/1/3
f 189/3/3 186/3/3 188/3/3
f 190/1/3 187/1/3 189/1/3
f 191/1/3 187/1/3 190/1/3
f 193/1/3 192/1/3 191/1/3
f 194/1/3 192/1/3 193/1/3
f 200/1/3 196/1/3 195/1/3
f 201/1/3 196/1/3 200/1/3
f 202/3/3 198/3/3 197/3/3
f 203/1/3 199/1/3 198/1/3
f 203/3/3 198/3/3 202/3/3
f 203/1/3 200/1/3 199/1/3
f 204/1/3 200/1/3 203/1/3
f 207/1/3 206/1/3 205/1/3
f 208/1/3 206/1/3 207/1/3
f 211/1/3 210/1/3 209/1/3
f 212/1/3 210/1/3 211/1/3
f 215/3/3 214/3/3 213/3/3
f 216/3/3 214/3/3 215/3/3
f 219/3/3 218/3/3 217/3/3
f 220/3/3 218/3/3 219/3/3
f 223/1/3 222/1/3 221/1/3
f 224/1/3 222/1/3 223/1/3
f 228/3/3 226/3/3 225/3/3
f 229/1/3 227/1/3 226/1/3
f 229/3/3 226/3/3 228/3/3
f 230/1/3 227/1/3 229/1/3
f 231/3/4 232/3/4 236/3/4
f 232/3/4 233/3/4 236/3/4
f 236/3/4 233/3/4 237/3/4
f 233/1/4 234/1/4 238/1/4
f 237/3/4 233/3/4 238/3/4
f 238/1/4 234/1/4 239/1/4
f 236/1/4 237/1/4 240/1/4
f 235/3/4 236/3/4 240/3/4
f 238/2/4 239/2/4 241/2/4
f 240/1/4 237/1/4 241/1/4
f 237/2/4 238/2/4 241/2/4
f 235/3/4 240/3/4 242/3/4
f 240/2/4 241/2/4 242/2/4
f 241/2/4 239/2/4 243/2/4
f 242/2/4 241/2/4 243/2/4
f 235/3/4 242/3/4 244/3/4
f 242/1/4 243/1/4 245/1/4
f 244/3/4 242/3/4 245/3/4
f 243/2/4 239/2/4 246/2/4
f 245/1/4 243/1/4 246/1/4
f 246/2/4 239/2/4 247/2/4
f 247/2/4 239/2/4 248/2/4
f 245/3/4 246/3/4 249/3/4
f 246/3/4 247/3/4 249/3/4
f 249/3/4 247/3/4 250/3/4
f 247/1/4 248/1/4 251/1/4
f 250/3/4 247/3/4 251/3/4
f 251/1/4 248/1/4 252/1/4
f 253/1/4 254/1/4 255/1/4
f 255/1/4 254/1/4 256/1/4
f 257/1/4 258/1/4 259/1/4
f 259/1/4 258/1/4 260/1/4
f 261/1/4 262/1/4 263/1/4
f 263/1/4 262/1/4 264/1/4
f 265/3/4 266/3/4 268/3/4
f 266/1/4 267/1/4 269/1/4
f 268/3/4 266/3/4 269/3/4
f 269/1/4 267/1/4 270/1/4
f 270/1/4 271/1/4 272/1/4
f 272/1/4 271/1/4 273/1/4
f 274/1/4 275/1/4 278/1/4
f 278/1/4 275/1/4 279/1/4
f 276/3/4 277/3/4 280/3/4
f 277/1/4 278/1/4 281/1/4
f 280/3/4 277/3/4 281/3/4
f 281/1/4 278/1/4 282/1/4
f 283/3/4 284/3/4 286/3/4
f 284/1/4 285/1/4 286/1/4
f 286/1/4 285/1/4 287/1/4
f 283/3/4 286/3/4 289/3/4
f 287/1/4 288/1/4 290/1/4
f 290/1/4 288/1/4 291/1/4
f 283/3/4 289/3/4 292/3/4
f 289/1/4 290/1/4 293/1/4
f 292/3/4 289/3/4 293/3/4
f 293/1/4 290/1/4 294/1/4
f 295/1/4 296/1/4 297/1/4
f 297/1/4 296/1/4 298/1/4
f 301/3/5 300/3/5 299/3/5
f 302/3/5 300/3/5 301/3/5
f 307/3/5 304/3/5 303/3/5
f 308/3/5 304/3/5 307/3/5
f 309/3/5 306/3/5 305/3/5
f 310/3/5 306/3/5 309/3/5
f 311/3/5 309/3/5 308/3/5
f 312/3/5 309/3/5 311/3/5
f 317/1/5 314/1/5 313/1/5
f 318/1/5 314/1/5 317/1/5
f 322/3/5 316/3/5 315/3/5
f 323/3/5 316/3/5 322/3/5
f 324/3/5 320/3/5 319/3/5
f 325/3/5 320/3/5 324/3/5
f 327/3/5 322/3/5 321/3/5
f 328/3/5 322/3/5 327/3/5
f 329/3/5 326/3/5 325/3/5
f 330/3/5 326/3/5 329/3/5
f 333/1/5 332/1/5 331/1/5
f 334/1/5 332/1/5 333/1/5
f 339/1/5 336/1/5 335/1/5
f 340/1/5 336/1/5 339/1/5
f 341/1/5 338/1/5 337/1/5
f 342/1/5 338/1/5 341/1/5
f 347/1/5 344/1/5 343/1/5
f 347/1/5 346/1/5 345/1/5
f 347/1/5 345/1/5 344/1/5
f 348/1/5 346/1/5 347/1/5
f 349/1/5 347/1/5 343/1/5
f 350/1/5 346/1/5 348/1/5
f 351/1/5 349/1/5 343/1/5
f 351/1/5 350/1/5 349/1/5
f 352/1/5 346/1/5 350/1/5
f 352/1/5 350/1/5 351/1/5
f 353/1/6 354/1/6 358/1/6
f 358/1/6 354/1/6 359/1/6
f 355/1/6 356/1/6 360/1/6
f 360/1/6 356/1/6 361/1/6
f 357/1/6 358/1/6 364/1/6
f 364/1/6 358/1/6 365/1/6
f 361/1/6 362/1/6 366/1/6
f 366/1/6 362/1/6 367/1/6
f 363/1/6 364/1/6 369/1/6
f 369/1/6 364/1/6 370/1/6
f 367/1/6 368/1/6 371/1/6
f 371/1/6 368/1/6 372/1/6
f 373/1/6 374/1/6 377/1/6
f 377/1/6 374/1/6 378/1/6
f 375/1/6 376/1/6 381/1/6
f 381/1/6 376/1/6 382/1/6
f 378/1/6 379/1/6 383/1/6
f 383/1/6 379/1/6 384/1/6
f 380/1/6 381/1/6 385/1/6
f 385/1/6 381/1/6 386/1/6
f 384/1/6 385/1/6 387/1/6
f 387/1/6 385/1/6 388/1/6
f 389/1/6 390/1/6 392/1/6
f 392/1/6 390/1/6 393/1/6
f 391/1/6 392/1/6 396/1/6
f 393/1/6 394/1/6 396/1/6
f 392/1/6 393/1/6 396/1/6
f 396/1/6 394/1/6 397/1/6
f 395/1/6 396/1/6 400/1/6
f 397/1/6 398/1/6 400/1/6
f 396/1/6 397/1/6 400/1/6
f 400/1/6 398/1/6 401/1/6
f 401/1/6 398/1/6 402/1/6
f 402/1/6 398/1/6 403/1/6
f 399/1/6 400/1/6 405/1/6
f 400/1/6 401/1/6 405/1/6
f 405/1/6 401/1/6 406/1/6
f 406/1/6 401/1/6 407/1/6
f 403/1/6 404/1/6 408/1/6
f 402/1/6 403/1/6 408/1/6
f 408/1/6 404/1/6 409/1/6
f 409/1/6 404/1/6 410/1/6
f 406/1/6 407/1/6 411/1/6
f 408/1/6 409/1/6 411/1/6
f 407/1/6 408/1/6 411/1/6
f 411/1/6 409/1/6 412/1/6
f 412/1/6 409/1/6 413/1/6
f 413/1/6 409/1/6 414/1/6
f 412/1/6 413/1/6 415/1/6
f 415/1/6 413/1/6 416/1/6
