# MagicaVoxel @ Ephtracy

# group
o 

# material
mtllib DialogButton.mtl
usemtl palette

# normals
vn -1 0 0
vn 1 0 0
vn 0 0 1
vn 0 0 -1
vn 0 -1 0
vn 0 1 0

# texcoords
vt 0.845703 0.5
vt 0.939453 0.5
vt 0.943359 0.5
vt 0.947266 0.5

# verts
v -1.6 0 -0.1
v -1.6 0 -0.2
v -1.6 0 -0.4
v -1.6 0.3 -0.1
v -1.6 0.3 -0.2
v -1.6 1.3 -0.1
v -1.6 1.3 -0.2
v -1.6 1.6 -0.1
v -1.6 1.6 -0.2
v -1.6 1.6 -0.4
v -1.4 0.2 -0.2
v -1.4 0.2 -0.3
v -1.4 0.6 -0.2
v -1.4 0.6 -0.3
v -1.4 0.7 -0.2
v -1.4 0.7 -0.3
v -1.4 1.2 -0.2
v -1.4 1.2 -0.3
v -1.4 1.3 -0.2
v -1.4 1.3 -0.3
v -1.4 1.4 -0.2
v -1.4 1.4 -0.3
v -1.3 0.6 -0.2
v -1.3 0.6 -0.3
v -1.3 0.7 -0.2
v -1.3 0.7 -0.3
v -1.3 1.2 -0.2
v -1.3 1.2 -0.3
v -1.3 1.3 -0.2
v -1.3 1.3 -0.3
v -0.9 0.2 -0.2
v -0.9 0.2 -0.3
v -0.9 0.3 -0.2
v -0.9 0.3 -0.3
v -0.7 1.3 -0.2
v -0.7 1.3 -0.3
v -0.7 1.4 -0.2
v -0.7 1.4 -0.3
v -0.6 0.2 -0.2
v -0.6 0.2 -0.3
v -0.6 0.3 -0.2
v -0.6 0.3 -0.3
v 0.5 1.3 -0.2
v 0.5 1.3 -0.3
v 0.5 1.4 -0.2
v 0.5 1.4 -0.3
v 1.2 0.2 -0.2
v 1.2 0.2 -0.3
v 1.2 0.3 -0.2
v 1.2 0.3 -0.3
v 1.3 0 -0.1
v 1.3 0 -0.2
v 1.3 0.1 -0.1
v 1.3 0.1 -0.2
v 1.3 1.5 -0.1
v 1.3 1.5 -0.2
v 1.3 1.6 -0.1
v 1.3 1.6 -0.2
v 1.4 0.1 -0.1
v 1.4 0.1 -0.2
v 1.4 0.2 -0.1
v 1.4 0.2 -0.2
v 1.4 1.4 -0.1
v 1.4 1.4 -0.2
v 1.4 1.5 -0.1
v 1.4 1.5 -0.2
v 1.5 0.1 -0.2
v 1.5 0.1 -0.3
v 1.5 0.2 -0.1
v 1.5 0.2 -0.2
v 1.5 0.3 -0.1
v 1.5 0.3 -0.2
v 1.5 1.3 -0.1
v 1.5 1.3 -0.2
v 1.5 1.4 -0.1
v 1.5 1.4 -0.2
v 1.5 1.5 -0.2
v 1.5 1.5 -0.3
v -1.5 0.1 -0.2
v -1.5 0.1 -0.3
v -1.5 0.2 -0.1
v -1.5 0.2 -0.2
v -1.5 0.3 -0.1
v -1.5 0.3 -0.2
v -1.5 1.3 -0.1
v -1.5 1.3 -0.2
v -1.5 1.4 -0.1
v -1.5 1.4 -0.2
v -1.5 1.5 -0.2
v -1.5 1.5 -0.3
v -1.4 0.1 -0.1
v -1.4 0.1 -0.2
v -1.4 0.2 -0.1
v -1.4 0.2 -0.2
v -1.4 1.4 -0.1
v -1.4 1.4 -0.2
v -1.4 1.5 -0.1
v -1.4 1.5 -0.2
v -1.3 0 -0.1
v -1.3 0 -0.2
v -1.3 0.1 -0.1
v -1.3 0.1 -0.2
v -1.3 1.5 -0.1
v -1.3 1.5 -0.2
v -1.3 1.6 -0.1
v -1.3 1.6 -0.2
v -1 0.2 -0.2
v -1 0.2 -0.3
v -1 0.3 -0.2
v -1 0.3 -0.3
v -0.8 1.3 -0.2
v -0.8 1.3 -0.3
v -0.8 1.4 -0.2
v -0.8 1.4 -0.3
v -0.7 0.2 -0.2
v -0.7 0.2 -0.3
v -0.7 0.3 -0.2
v -0.7 0.3 -0.3
v 0.4 1.3 -0.2
v 0.4 1.3 -0.3
v 0.4 1.4 -0.2
v 0.4 1.4 -0.3
v 1.1 0.2 -0.2
v 1.1 0.2 -0.3
v 1.1 0.3 -0.2
v 1.1 0.3 -0.3
v 1.3 0.8 -0.2
v 1.3 0.8 -0.3
v 1.3 0.9 -0.2
v 1.3 0.9 -0.3
v 1.4 0.2 -0.2
v 1.4 0.2 -0.3
v 1.4 0.8 -0.2
v 1.4 0.8 -0.3
v 1.4 0.9 -0.2
v 1.4 0.9 -0.3
v 1.4 1.4 -0.2
v 1.4 1.4 -0.3
v 1.6 0 -0.1
v 1.6 0 -0.2
v 1.6 0 -0.4
v 1.6 0.3 -0.1
v 1.6 0.3 -0.2
v 1.6 1.3 -0.1
v 1.6 1.3 -0.2
v 1.6 1.6 -0.1
v 1.6 1.6 -0.2
v 1.6 1.6 -0.4
v -1.6 0 -0.1
v -1.6 0.3 -0.1
v -1.6 1.3 -0.1
v -1.6 1.6 -0.1
v -1.5 0.2 -0.1
v -1.5 0.3 -0.1
v -1.5 1.3 -0.1
v -1.5 1.4 -0.1
v -1.4 0.1 -0.1
v -1.4 0.2 -0.1
v -1.4 1.4 -0.1
v -1.4 1.5 -0.1
v -1.3 0 -0.1
v -1.3 0.1 -0.1
v -1.3 1.5 -0.1
v -1.3 1.6 -0.1
v 1.3 0 -0.1
v 1.3 0.1 -0.1
v 1.3 1.5 -0.1
v 1.3 1.6 -0.1
v 1.4 0.1 -0.1
v 1.4 0.2 -0.1
v 1.4 1.4 -0.1
v 1.4 1.5 -0.1
v 1.5 0.2 -0.1
v 1.5 0.3 -0.1
v 1.5 1.3 -0.1
v 1.5 1.4 -0.1
v 1.6 0 -0.1
v 1.6 0.3 -0.1
v 1.6 1.3 -0.1
v 1.6 1.6 -0.1
v -1.6 0.3 -0.2
v -1.6 1.3 -0.2
v -1.5 0.3 -0.2
v -1.5 1.3 -0.2
v -1.4 0.2 -0.2
v -1.4 0.6 -0.2
v -1.4 0.7 -0.2
v -1.4 1.2 -0.2
v -1.4 1.3 -0.2
v -1.4 1.4 -0.2
v -1.3 0 -0.2
v -1.3 0.1 -0.2
v -1.3 0.6 -0.2
v -1.3 0.7 -0.2
v -1.3 1.2 -0.2
v -1.3 1.3 -0.2
v -1.3 1.5 -0.2
v -1.3 1.6 -0.2
v -1 0.2 -0.2
v -1 0.3 -0.2
v -0.9 0.2 -0.2
v -0.9 0.3 -0.2
v -0.8 1.3 -0.2
v -0.8 1.4 -0.2
v -0.7 0.2 -0.2
v -0.7 0.3 -0.2
v -0.7 1.3 -0.2
v -0.7 1.4 -0.2
v -0.6 0.2 -0.2
v -0.6 0.3 -0.2
v 0.4 1.3 -0.2
v 0.4 1.4 -0.2
v 0.5 1.3 -0.2
v 0.5 1.4 -0.2
v 1.1 0.2 -0.2
v 1.1 0.3 -0.2
v 1.2 0.2 -0.2
v 1.2 0.3 -0.2
v 1.3 0 -0.2
v 1.3 0.1 -0.2
v 1.3 0.8 -0.2
v 1.3 0.9 -0.2
v 1.3 1.5 -0.2
v 1.3 1.6 -0.2
v 1.4 0.2 -0.2
v 1.4 0.8 -0.2
v 1.4 0.9 -0.2
v 1.4 1.4 -0.2
v 1.5 0.3 -0.2
v 1.5 1.3 -0.2
v 1.6 0.3 -0.2
v 1.6 1.3 -0.2
v -1.5 0.1 -0.3
v -1.5 1.5 -0.3
v -1.4 0.2 -0.3
v -1.4 0.6 -0.3
v -1.4 0.7 -0.3
v -1.4 1.2 -0.3
v -1.4 1.3 -0.3
v -1.4 1.4 -0.3
v -1.3 0.6 -0.3
v -1.3 0.7 -0.3
v -1.3 1.2 -0.3
v -1.3 1.3 -0.3
v -1 0.2 -0.3
v -1 0.3 -0.3
v -0.9 0.2 -0.3
v -0.9 0.3 -0.3
v -0.8 1.3 -0.3
v -0.8 1.4 -0.3
v -0.7 0.2 -0.3
v -0.7 0.3 -0.3
v -0.7 1.3 -0.3
v -0.7 1.4 -0.3
v -0.6 0.2 -0.3
v -0.6 0.3 -0.3
v 0.4 1.3 -0.3
v 0.4 1.4 -0.3
v 0.5 1.3 -0.3
v 0.5 1.4 -0.3
v 1.1 0.2 -0.3
v 1.1 0.3 -0.3
v 1.2 0.2 -0.3
v 1.2 0.3 -0.3
v 1.3 0.8 -0.3
v 1.3 0.9 -0.3
v 1.4 0.2 -0.3
v 1.4 0.8 -0.3
v 1.4 0.9 -0.3
v 1.4 1.4 -0.3
v 1.5 0.1 -0.3
v 1.5 1.5 -0.3
v -1.5 0.1 -0.2
v -1.5 0.2 -0.2
v -1.5 1.4 -0.2
v -1.5 1.5 -0.2
v -1.4 0.1 -0.2
v -1.4 0.2 -0.2
v -1.4 1.4 -0.2
v -1.4 1.5 -0.2
v 1.4 0.1 -0.2
v 1.4 0.2 -0.2
v 1.4 1.4 -0.2
v 1.4 1.5 -0.2
v 1.5 0.1 -0.2
v 1.5 0.2 -0.2
v 1.5 1.4 -0.2
v 1.5 1.5 -0.2
v -1.6 0 -0.4
v -1.6 1.6 -0.4
v -1.5 0.1 -0.4
v -1.5 1.5 -0.4
v 1.5 0.1 -0.4
v 1.5 1.5 -0.4
v 1.6 0 -0.4
v 1.6 1.6 -0.4
v -1.6 0 -0.1
v -1.3 0 -0.1
v 1.3 0 -0.1
v 1.6 0 -0.1
v -1.6 0 -0.2
v -1.3 0 -0.2
v 1.3 0 -0.2
v 1.6 0 -0.2
v -1.6 0 -0.4
v 1.6 0 -0.4
v -1.4 0.2 -0.2
v -1 0.2 -0.2
v -0.9 0.2 -0.2
v -0.7 0.2 -0.2
v -0.6 0.2 -0.2
v 1.1 0.2 -0.2
v 1.2 0.2 -0.2
v 1.4 0.2 -0.2
v -1.4 0.2 -0.3
v -1 0.2 -0.3
v -0.9 0.2 -0.3
v -0.7 0.2 -0.3
v -0.6 0.2 -0.3
v 1.1 0.2 -0.3
v 1.2 0.2 -0.3
v 1.4 0.2 -0.3
v -1 0.3 -0.2
v -0.9 0.3 -0.2
v -0.7 0.3 -0.2
v -0.6 0.3 -0.2
v 1.1 0.3 -0.2
v 1.2 0.3 -0.2
v -1 0.3 -0.3
v -0.9 0.3 -0.3
v -0.7 0.3 -0.3
v -0.6 0.3 -0.3
v 1.1 0.3 -0.3
v 1.2 0.3 -0.3
v -1.4 0.7 -0.2
v -1.3 0.7 -0.2
v -1.4 0.7 -0.3
v -1.3 0.7 -0.3
v 1.3 0.9 -0.2
v 1.4 0.9 -0.2
v 1.3 0.9 -0.3
v 1.4 0.9 -0.3
v -1.6 1.3 -0.1
v -1.5 1.3 -0.1
v 1.5 1.3 -0.1
v 1.6 1.3 -0.1
v -1.6 1.3 -0.2
v -1.5 1.3 -0.2
v -1.4 1.3 -0.2
v -1.3 1.3 -0.2
v 1.5 1.3 -0.2
v 1.6 1.3 -0.2
v -1.4 1.3 -0.3
v -1.3 1.3 -0.3
v -1.5 1.4 -0.1
v -1.4 1.4 -0.1
v 1.4 1.4 -0.1
v 1.5 1.4 -0.1
v -1.5 1.4 -0.2
v -1.4 1.4 -0.2
v 1.4 1.4 -0.2
v 1.5 1.4 -0.2
v -1.4 1.5 -0.1
v -1.3 1.5 -0.1
v 1.3 1.5 -0.1
v 1.4 1.5 -0.1
v -1.5 1.5 -0.2
v -1.4 1.5 -0.2
v -1.3 1.5 -0.2
v 1.3 1.5 -0.2
v 1.4 1.5 -0.2
v 1.5 1.5 -0.2
v -1.5 1.5 -0.3
v 1.5 1.5 -0.3
v -1.4 0.1 -0.1
v -1.3 0.1 -0.1
v 1.3 0.1 -0.1
v 1.4 0.1 -0.1
v -1.5 0.1 -0.2
v -1.4 0.1 -0.2
v -1.3 0.1 -0.2
v 1.3 0.1 -0.2
v 1.4 0.1 -0.2
v 1.5 0.1 -0.2
v -1.5 0.1 -0.3
v 1.5 0.1 -0.3
v -1.5 0.2 -0.1
v -1.4 0.2 -0.1
v 1.4 0.2 -0.1
v 1.5 0.2 -0.1
v -1.5 0.2 -0.2
v -1.4 0.2 -0.2
v 1.4 0.2 -0.2
v 1.5 0.2 -0.2
v -1.6 0.3 -0.1
v -1.5 0.3 -0.1
v 1.5 0.3 -0.1
v 1.6 0.3 -0.1
v -1.6 0.3 -0.2
v -1.5 0.3 -0.2
v 1.5 0.3 -0.2
v 1.6 0.3 -0.2
v -1.4 0.6 -0.2
v -1.3 0.6 -0.2
v -1.4 0.6 -0.3
v -1.3 0.6 -0.3
v 1.3 0.8 -0.2
v 1.4 0.8 -0.2
v 1.3 0.8 -0.3
v 1.4 0.8 -0.3
v -1.4 1.2 -0.2
v -1.3 1.2 -0.2
v -1.4 1.2 -0.3
v -1.3 1.2 -0.3
v -0.8 1.3 -0.2
v -0.7 1.3 -0.2
v 0.4 1.3 -0.2
v 0.5 1.3 -0.2
v -0.8 1.3 -0.3
v -0.7 1.3 -0.3
v 0.4 1.3 -0.3
v 0.5 1.3 -0.3
v -1.4 1.4 -0.2
v -0.8 1.4 -0.2
v -0.7 1.4 -0.2
v 0.4 1.4 -0.2
v 0.5 1.4 -0.2
v 1.4 1.4 -0.2
v -1.4 1.4 -0.3
v -0.8 1.4 -0.3
v -0.7 1.4 -0.3
v 0.4 1.4 -0.3
v 0.5 1.4 -0.3
v 1.4 1.4 -0.3
v -1.6 1.6 -0.1
v -1.3 1.6 -0.1
v 1.3 1.6 -0.1
v 1.6 1.6 -0.1
v -1.6 1.6 -0.2
v -1.3 1.6 -0.2
v 1.3 1.6 -0.2
v 1.6 1.6 -0.2
v -1.6 1.6 -0.4
v 1.6 1.6 -0.4

# faces
f 4/1/1 2/1/1 1/1/1
f 5/3/1 3/3/1 2/3/1
f 5/1/1 2/1/1 4/1/1
f 7/3/1 3/3/1 5/3/1
f 8/1/1 7/1/1 6/1/1
f 9/3/1 3/3/1 7/3/1
f 9/1/1 7/1/1 8/1/1
f 10/3/1 3/3/1 9/3/1
f 13/4/1 12/4/1 11/4/1
f 14/4/1 12/4/1 13/4/1
f 17/4/1 16/4/1 15/4/1
f 18/4/1 16/4/1 17/4/1
f 21/4/1 20/4/1 19/4/1
f 22/4/1 20/4/1 21/4/1
f 25/4/1 24/4/1 23/4/1
f 26/4/1 24/4/1 25/4/1
f 29/4/1 28/4/1 27/4/1
f 30/4/1 28/4/1 29/4/1
f 33/4/1 32/4/1 31/4/1
f 34/4/1 32/4/1 33/4/1
f 37/4/1 36/4/1 35/4/1
f 38/4/1 36/4/1 37/4/1
f 41/4/1 40/4/1 39/4/1
f 42/4/1 40/4/1 41/4/1
f 45/4/1 44/4/1 43/4/1
f 46/4/1 44/4/1 45/4/1
f 49/4/1 48/4/1 47/4/1
f 50/4/1 48/4/1 49/4/1
f 53/1/1 52/1/1 51/1/1
f 54/1/1 52/1/1 53/1/1
f 57/1/1 56/1/1 55/1/1
f 58/1/1 56/1/1 57/1/1
f 61/1/1 60/1/1 59/1/1
f 62/1/1 60/1/1 61/1/1
f 65/1/1 64/1/1 63/1/1
f 66/1/1 64/1/1 65/1/1
f 70/3/1 68/3/1 67/3/1
f 71/1/1 70/1/1 69/1/1
f 72/3/1 68/3/1 70/3/1
f 72/1/1 70/1/1 71/1/1
f 74/3/1 68/3/1 72/3/1
f 75/1/1 74/1/1 73/1/1
f 76/3/1 68/3/1 74/3/1
f 76/1/1 74/1/1 75/1/1
f 77/3/1 68/3/1 76/3/1
f 78/3/1 68/3/1 77/3/1
f 79/3/2 80/3/2 82/3/2
f 81/1/2 82/1/2 83/1/2
f 82/3/2 80/3/2 84/3/2
f 83/1/2 82/1/2 84/1/2
f 84/3/2 80/3/2 86/3/2
f 85/1/2 86/1/2 87/1/2
f 86/3/2 80/3/2 88/3/2
f 87/1/2 86/1/2 88/1/2
f 88/3/2 80/3/2 89/3/2
f 89/3/2 80/3/2 90/3/2
f 91/1/2 92/1/2 93/1/2
f 93/1/2 92/1/2 94/1/2
f 95/1/2 96/1/2 97/1/2
f 97/1/2 96/1/2 98/1/2
f 99/1/2 100/1/2 101/1/2
f 101/1/2 100/1/2 102/1/2
f 103/1/2 104/1/2 105/1/2
f 105/1/2 104/1/2 106/1/2
f 107/4/2 108/4/2 109/4/2
f 109/4/2 108/4/2 110/4/2
f 111/4/2 112/4/2 113/4/2
f 113/4/2 112/4/2 114/4/2
f 115/4/2 116/4/2 117/4/2
f 117/4/2 116/4/2 118/4/2
f 119/4/2 120/4/2 121/4/2
f 121/4/2 120/4/2 122/4/2
f 123/4/2 124/4/2 125/4/2
f 125/4/2 124/4/2 126/4/2
f 127/4/2 128/4/2 129/4/2
f 129/4/2 128/4/2 130/4/2
f 131/4/2 132/4/2 133/4/2
f 133/4/2 132/4/2 134/4/2
f 135/4/2 136/4/2 137/4/2
f 137/4/2 136/4/2 138/4/2
f 139/1/2 140/1/2 142/1/2
f 140/3/2 141/3/2 143/3/2
f 142/1/2 140/1/2 143/1/2
f 143/3/2 141/3/2 145/3/2
f 144/1/2 145/1/2 146/1/2
f 145/3/2 141/3/2 147/3/2
f 146/1/2 145/1/2 147/1/2
f 147/3/2 141/3/2 148/3/2
f 153/1/3 150/1/3 149/1/3
f 154/1/3 150/1/3 153/1/3
f 155/1/3 152/1/3 151/1/3
f 156/1/3 152/1/3 155/1/3
f 157/1/3 153/1/3 149/1/3
f 158/1/3 153/1/3 157/1/3
f 159/1/3 152/1/3 156/1/3
f 160/1/3 152/1/3 159/1/3
f 161/1/3 157/1/3 149/1/3
f 162/1/3 157/1/3 161/1/3
f 163/1/3 152/1/3 160/1/3
f 164/1/3 152/1/3 163/1/3
f 169/1/3 166/1/3 165/1/3
f 172/1/3 168/1/3 167/1/3
f 173/1/3 170/1/3 169/1/3
f 176/1/3 172/1/3 171/1/3
f 177/1/3 174/1/3 173/1/3
f 177/1/3 169/1/3 165/1/3
f 177/1/3 173/1/3 169/1/3
f 178/1/3 174/1/3 177/1/3
f 179/1/3 176/1/3 175/1/3
f 180/1/3 172/1/3 176/1/3
f 180/1/3 176/1/3 179/1/3
f 180/1/3 168/1/3 172/1/3
f 183/3/3 182/3/3 181/3/3
f 184/3/3 182/3/3 183/3/3
f 193/4/3 186/4/3 185/4/3
f 194/4/3 188/4/3 187/4/3
f 195/4/3 188/4/3 194/4/3
f 196/4/3 190/4/3 189/4/3
f 199/4/3 193/4/3 185/4/3
f 199/4/3 195/4/3 194/4/3
f 199/4/3 196/4/3 195/4/3
f 199/4/3 194/4/3 193/4/3
f 200/4/3 196/4/3 199/4/3
f 202/4/3 196/4/3 200/4/3
f 203/4/3 190/4/3 196/4/3
f 203/4/3 202/4/3 201/4/3
f 203/4/3 196/4/3 202/4/3
f 204/4/3 190/4/3 203/4/3
f 205/4/3 203/4/3 201/4/3
f 206/4/3 203/4/3 205/4/3
f 207/4/3 203/4/3 206/4/3
f 210/4/3 208/4/3 207/4/3
f 210/4/3 207/4/3 206/4/3
f 211/4/3 208/4/3 210/4/3
f 211/4/3 210/4/3 209/4/3
f 212/4/3 208/4/3 211/4/3
f 213/4/3 211/4/3 209/4/3
f 215/4/3 213/4/3 209/4/3
f 215/4/3 214/4/3 213/4/3
f 216/4/3 214/4/3 215/4/3
f 218/4/3 214/4/3 216/4/3
f 219/3/3 192/3/3 191/3/3
f 220/3/3 192/3/3 219/3/3
f 221/4/3 218/4/3 217/4/3
f 221/4/3 214/4/3 218/4/3
f 222/4/3 214/4/3 221/4/3
f 223/3/3 198/3/3 197/3/3
f 224/3/3 198/3/3 223/3/3
f 225/4/3 221/4/3 217/4/3
f 226/4/3 221/4/3 225/4/3
f 227/4/3 214/4/3 222/4/3
f 228/4/3 214/4/3 227/4/3
f 231/3/3 230/3/3 229/3/3
f 232/3/3 230/3/3 231/3/3
f 235/2/3 234/2/3 233/2/3
f 236/2/3 234/2/3 235/2/3
f 237/2/3 234/2/3 236/2/3
f 238/2/3 234/2/3 237/2/3
f 239/2/3 234/2/3 238/2/3
f 240/2/3 234/2/3 239/2/3
f 241/2/3 237/2/3 236/2/3
f 242/2/3 237/2/3 241/2/3
f 243/2/3 239/2/3 238/2/3
f 244/2/3 239/2/3 243/2/3
f 245/2/3 235/2/3 233/2/3
f 247/2/3 245/2/3 233/2/3
f 247/2/3 246/2/3 245/2/3
f 248/2/3 246/2/3 247/2/3
f 250/2/3 234/2/3 240/2/3
f 251/2/3 247/2/3 233/2/3
f 253/2/3 250/2/3 249/2/3
f 254/2/3 234/2/3 250/2/3
f 254/2/3 250/2/3 253/2/3
f 255/2/3 252/2/3 251/2/3
f 255/2/3 251/2/3 233/2/3
f 256/2/3 252/2/3 255/2/3
f 258/2/3 234/2/3 254/2/3
f 259/2/3 258/2/3 257/2/3
f 260/2/3 234/2/3 258/2/3
f 260/2/3 258/2/3 259/2/3
f 261/2/3 255/2/3 233/2/3
f 263/2/3 261/2/3 233/2/3
f 263/2/3 262/2/3 261/2/3
f 264/2/3 262/2/3 263/2/3
f 267/2/3 263/2/3 233/2/3
f 268/2/3 266/2/3 265/2/3
f 269/2/3 266/2/3 268/2/3
f 270/2/3 234/2/3 260/2/3
f 271/2/3 269/2/3 268/2/3
f 271/2/3 270/2/3 269/2/3
f 271/2/3 267/2/3 233/2/3
f 271/2/3 268/2/3 267/2/3
f 272/2/3 234/2/3 270/2/3
f 272/2/3 270/2/3 271/2/3
f 273/1/4 274/1/4 277/1/4
f 277/1/4 274/1/4 278/1/4
f 275/1/4 276/1/4 279/1/4
f 279/1/4 276/1/4 280/1/4
f 281/1/4 282/1/4 285/1/4
f 285/1/4 282/1/4 286/1/4
f 283/1/4 284/1/4 287/1/4
f 287/1/4 284/1/4 288/1/4
f 289/3/4 290/3/4 291/3/4
f 291/3/4 290/3/4 292/3/4
f 289/3/4 291/3/4 293/3/4
f 291/2/4 292/2/4 293/2/4
f 292/3/4 290/3/4 294/3/4
f 293/2/4 292/2/4 294/2/4
f 289/3/4 293/3/4 295/3/4
f 293/3/4 294/3/4 295/3/4
f 294/3/4 290/3/4 296/3/4
f 295/3/4 294/3/4 296/3/4
f 301/1/5 298/1/5 297/1/5
f 302/1/5 298/1/5 301/1/5
f 303/1/5 300/1/5 299/1/5
f 304/1/5 300/1/5 303/1/5
f 305/3/5 302/3/5 301/3/5
f 305/3/5 303/3/5 302/3/5
f 305/3/5 304/3/5 303/3/5
f 306/3/5 304/3/5 305/3/5
f 315/4/5 308/4/5 307/4/5
f 316/4/5 308/4/5 315/4/5
f 317/4/5 310/4/5 309/4/5
f 318/4/5 310/4/5 317/4/5
f 319/4/5 312/4/5 311/4/5
f 320/4/5 312/4/5 319/4/5
f 321/4/5 314/4/5 313/4/5
f 322/4/5 314/4/5 321/4/5
f 329/4/5 324/4/5 323/4/5
f 330/4/5 324/4/5 329/4/5
f 331/4/5 326/4/5 325/4/5
f 332/4/5 326/4/5 331/4/5
f 333/4/5 328/4/5 327/4/5
f 334/4/5 328/4/5 333/4/5
f 337/4/5 336/4/5 335/4/5
f 338/4/5 336/4/5 337/4/5
f 341/4/5 340/4/5 339/4/5
f 342/4/5 340/4/5 341/4/5
f 347/1/5 344/1/5 343/1/5
f 348/1/5 344/1/5 347/1/5
f 351/1/5 346/1/5 345/1/5
f 352/1/5 346/1/5 351/1/5
f 353/4/5 350/4/5 349/4/5
f 354/4/5 350/4/5 353/4/5
f 359/1/5 356/1/5 355/1/5
f 360/1/5 356/1/5 359/1/5
f 361/1/5 358/1/5 357/1/5
f 362/1/5 358/1/5 361/1/5
f 368/1/5 364/1/5 363/1/5
f 369/1/5 364/1/5 368/1/5
f 370/1/5 366/1/5 365/1/5
f 371/1/5 366/1/5 370/1/5
f 373/3/5 369/3/5 368/3/5
f 373/3/5 372/3/5 371/3/5
f 373/3/5 371/3/5 370/3/5
f 373/3/5 370/3/5 369/3/5
f 373/3/5 368/3/5 367/3/5
f 374/3/5 372/3/5 373/3/5
f 375/1/6 376/1/6 380/1/6
f 380/1/6 376/1/6 381/1/6
f 377/1/6 378/1/6 382/1/6
f 382/1/6 378/1/6 383/1/6
f 380/3/6 381/3/6 385/3/6
f 383/3/6 384/3/6 385/3/6
f 382/3/6 383/3/6 385/3/6
f 381/3/6 382/3/6 385/3/6
f 379/3/6 380/3/6 385/3/6
f 385/3/6 384/3/6 386/3/6
f 387/1/6 388/1/6 391/1/6
f 391/1/6 388/1/6 392/1/6
f 389/1/6 390/1/6 393/1/6
f 393/1/6 390/1/6 394/1/6
f 395/1/6 396/1/6 399/1/6
f 399/1/6 396/1/6 400/1/6
f 397/1/6 398/1/6 401/1/6
f 401/1/6 398/1/6 402/1/6
f 403/4/6 404/4/6 405/4/6
f 405/4/6 404/4/6 406/4/6
f 407/4/6 408/4/6 409/4/6
f 409/4/6 408/4/6 410/4/6
f 411/4/6 412/4/6 413/4/6
f 413/4/6 412/4/6 414/4/6
f 415/4/6 416/4/6 419/4/6
f 419/4/6 416/4/6 420/4/6
f 417/4/6 418/4/6 421/4/6
f 421/4/6 418/4/6 422/4/6
f 423/4/6 424/4/6 429/4/6
f 429/4/6 424/4/6 430/4/6
f 425/4/6 426/4/6 431/4/6
f 431/4/6 426/4/6 432/4/6
f 427/4/6 428/4/6 433/4/6
f 433/4/6 428/4/6 434/4/6
f 435/1/6 436/1/6 439/1/6
f 439/1/6 436/1/6 440/1/6
f 437/1/6 438/1/6 441/1/6
f 441/1/6 438/1/6 442/1/6
f 439/3/6 440/3/6 443/3/6
f 440/3/6 441/3/6 443/3/6
f 441/3/6 442/3/6 443/3/6
f 443/3/6 442/3/6 444/3/6
