# MagicaVoxel @ Ephtracy

# group
o 

# material
mtllib littleguy_walk_0.mtl
usemtl palette

# normals
vn -1 0 0
vn 1 0 0
vn 0 0 1
vn 0 0 -1
vn 0 -1 0
vn 0 1 0

# texcoords
vt 0.0332031 0.5
vt 0.0605469 0.5
vt 0.958984 0.5
vt 0.986328 0.5
vt 0.994141 0.5

# verts
v -0.5 0.6 0.2
v -0.5 0.6 0
v -0.5 0.8 0.2
v -0.5 0.8 0
v -0.4 1.1 0.2
v -0.4 1.1 -0.3
v -0.4 1.2 0.3
v -0.4 1.2 0.2
v -0.4 1.2 -0.3
v -0.4 1.2 -0.4
v -0.4 1.6 0.3
v -0.4 1.6 0.2
v -0.4 1.6 -0.3
v -0.4 1.6 -0.4
v -0.4 1.7 0.2
v -0.4 1.7 -0.3
v -0.3 0.1 -0.1
v -0.3 0.1 -0.2
v -0.3 0.3 0
v -0.3 0.3 -0.1
v -0.3 0.3 -0.2
v -0.3 0.4 0.2
v -0.3 0.4 0
v -0.3 0.4 -0.1
v -0.3 0.4 -0.3
v -0.3 0.6 0.2
v -0.3 0.6 0
v -0.3 0.8 0.2
v -0.3 0.8 0
v -0.3 1 0.2
v -0.3 1 -0.3
v -0.3 1.1 0.3
v -0.3 1.1 0.2
v -0.3 1.1 -0.3
v -0.3 1.1 -0.4
v -0.3 1.2 0.3
v -0.3 1.2 0.2
v -0.3 1.2 -0.3
v -0.3 1.2 -0.4
v -0.3 1.6 0.3
v -0.3 1.6 0.2
v -0.3 1.6 -0.3
v -0.3 1.6 -0.4
v -0.3 1.7 0.3
v -0.3 1.7 0.2
v -0.3 1.7 -0.3
v -0.3 1.7 -0.4
v -0.2 1 0.1
v -0.2 1 -0.2
v -0.2 1.1 0.1
v -0.2 1.1 -0.2
v -0.1 1.3 0.4
v -0.1 1.3 0.3
v -0.1 1.4 0.4
v -0.1 1.4 0.3
v 0.1 0.1 0.1
v 0.1 0.1 0
v 0.1 0.3 0.1
v 0.1 0.3 0
v 0.1 0.3 -0.1
v 0.1 0.4 0
v 0.1 0.4 -0.1
v -0.1 0.1 -0.1
v -0.1 0.1 -0.2
v -0.1 0.3 0
v -0.1 0.3 -0.1
v -0.1 0.3 -0.2
v -0.1 0.4 0
v -0.1 0.4 -0.1
v 0.1 1.3 0.4
v 0.1 1.3 0.3
v 0.1 1.4 0.4
v 0.1 1.4 0.3
v 0.2 1 0.1
v 0.2 1 -0.2
v 0.2 1.1 0.1
v 0.2 1.1 -0.2
v 0.3 0.1 0.1
v 0.3 0.1 0
v 0.3 0.3 0.1
v 0.3 0.3 0
v 0.3 0.3 -0.1
v 0.3 0.4 0.2
v 0.3 0.4 0
v 0.3 0.4 -0.1
v 0.3 0.4 -0.3
v 0.3 0.6 0
v 0.3 0.6 -0.2
v 0.3 0.8 0
v 0.3 0.8 -0.2
v 0.3 1 0.2
v 0.3 1 -0.3
v 0.3 1.1 0.3
v 0.3 1.1 0.2
v 0.3 1.1 -0.3
v 0.3 1.1 -0.4
v 0.3 1.2 0.3
v 0.3 1.2 0.2
v 0.3 1.2 -0.3
v 0.3 1.2 -0.4
v 0.3 1.6 0.3
v 0.3 1.6 0.2
v 0.3 1.6 -0.3
v 0.3 1.6 -0.4
v 0.3 1.7 0.3
v 0.3 1.7 0.2
v 0.3 1.7 -0.3
v 0.3 1.7 -0.4
v 0.4 1.1 0.2
v 0.4 1.1 -0.3
v 0.4 1.2 0.3
v 0.4 1.2 0.2
v 0.4 1.2 -0.3
v 0.4 1.2 -0.4
v 0.4 1.6 0.3
v 0.4 1.6 0.2
v 0.4 1.6 -0.3
v 0.4 1.6 -0.4
v 0.4 1.7 0.2
v 0.4 1.7 -0.3
v 0.5 0.6 0
v 0.5 0.6 -0.2
v 0.5 0.8 0
v 0.5 0.8 -0.2
v -0.1 1.3 0.4
v -0.1 1.4 0.4
v 0.1 1.3 0.4
v 0.1 1.4 0.4
v -0.4 1.2 0.3
v -0.4 1.6 0.3
v -0.3 1.1 0.3
v -0.3 1.2 0.3
v -0.3 1.4 0.3
v -0.3 1.5 0.3
v -0.3 1.6 0.3
v -0.3 1.7 0.3
v -0.2 1.4 0.3
v -0.2 1.5 0.3
v -0.1 1.3 0.3
v -0.1 1.4 0.3
v -0.1 1.5 0.3
v 0.1 1.3 0.3
v 0.1 1.4 0.3
v 0.1 1.5 0.3
v 0.2 1.4 0.3
v 0.2 1.5 0.3
v 0.3 1.1 0.3
v 0.3 1.2 0.3
v 0.3 1.4 0.3
v 0.3 1.5 0.3
v 0.3 1.6 0.3
v 0.3 1.7 0.3
v 0.4 1.2 0.3
v 0.4 1.6 0.3
v -0.5 0.6 0.2
v -0.5 0.8 0.2
v -0.4 1.1 0.2
v -0.4 1.2 0.2
v -0.4 1.6 0.2
v -0.4 1.7 0.2
v -0.3 0.4 0.2
v -0.3 0.6 0.2
v -0.3 0.8 0.2
v -0.3 1 0.2
v -0.3 1.1 0.2
v -0.3 1.2 0.2
v -0.3 1.6 0.2
v -0.3 1.7 0.2
v 0.3 0.4 0.2
v 0.3 1 0.2
v 0.3 1.1 0.2
v 0.3 1.2 0.2
v 0.3 1.6 0.2
v 0.3 1.7 0.2
v 0.4 1.1 0.2
v 0.4 1.2 0.2
v 0.4 1.6 0.2
v 0.4 1.7 0.2
v -0.2 1 0.1
v -0.2 1.1 0.1
v 0.1 0.1 0.1
v 0.1 0.3 0.1
v 0.2 1 0.1
v 0.2 1.1 0.1
v 0.3 0.1 0.1
v 0.3 0.3 0.1
v -0.3 0.3 0
v -0.3 0.4 0
v -0.1 0.3 0
v -0.1 0.4 0
v 0.1 0.3 0
v 0.1 0.4 0
v 0.3 0.3 0
v 0.3 0.4 0
v 0.3 0.6 0
v 0.3 0.8 0
v 0.5 0.6 0
v 0.5 0.8 0
v -0.3 0.1 -0.1
v -0.3 0.3 -0.1
v -0.1 0.1 -0.1
v -0.1 0.3 -0.1
v -0.5 0.6 0
v -0.5 0.8 0
v -0.3 0.6 0
v -0.3 0.8 0
v 0.1 0.1 0
v 0.1 0.3 0
v 0.3 0.1 0
v 0.3 0.3 0
v -0.3 0.3 -0.1
v -0.3 0.4 -0.1
v -0.1 0.3 -0.1
v -0.1 0.4 -0.1
v 0.1 0.3 -0.1
v 0.1 0.4 -0.1
v 0.3 0.3 -0.1
v 0.3 0.4 -0.1
v -0.3 0.1 -0.2
v -0.3 0.3 -0.2
v -0.2 1 -0.2
v -0.2 1.1 -0.2
v -0.1 0.1 -0.2
v -0.1 0.3 -0.2
v 0.2 1 -0.2
v 0.2 1.1 -0.2
v 0.3 0.6 -0.2
v 0.3 0.8 -0.2
v 0.5 0.6 -0.2
v 0.5 0.8 -0.2
v -0.4 1.1 -0.3
v -0.4 1.2 -0.3
v -0.4 1.6 -0.3
v -0.4 1.7 -0.3
v -0.3 0.4 -0.3
v -0.3 1 -0.3
v -0.3 1.1 -0.3
v -0.3 1.2 -0.3
v -0.3 1.6 -0.3
v -0.3 1.7 -0.3
v 0.3 0.4 -0.3
v 0.3 1 -0.3
v 0.3 1.1 -0.3
v 0.3 1.2 -0.3
v 0.3 1.6 -0.3
v 0.3 1.7 -0.3
v 0.4 1.1 -0.3
v 0.4 1.2 -0.3
v 0.4 1.6 -0.3
v 0.4 1.7 -0.3
v -0.4 1.2 -0.4
v -0.4 1.6 -0.4
v -0.3 1.1 -0.4
v -0.3 1.2 -0.4
v -0.3 1.6 -0.4
v -0.3 1.7 -0.4
v 0.3 1.1 -0.4
v 0.3 1.2 -0.4
v 0.3 1.6 -0.4
v 0.3 1.7 -0.4
v 0.4 1.2 -0.4
v 0.4 1.6 -0.4
v 0.1 0.1 0.1
v 0.3 0.1 0.1
v 0.1 0.1 0
v 0.3 0.1 0
v -0.3 0.1 -0.1
v -0.1 0.1 -0.1
v -0.3 0.1 -0.2
v -0.1 0.1 -0.2
v -0.3 0.3 0
v -0.1 0.3 0
v 0.1 0.3 0
v 0.3 0.3 0
v -0.3 0.3 -0.1
v -0.1 0.3 -0.1
v 0.1 0.3 -0.1
v 0.3 0.3 -0.1
v -0.3 0.4 0.2
v 0.3 0.4 0.2
v -0.3 0.4 0
v -0.1 0.4 0
v 0.1 0.4 0
v 0.3 0.4 0
v -0.3 0.4 -0.1
v -0.1 0.4 -0.1
v 0.1 0.4 -0.1
v 0.3 0.4 -0.1
v -0.3 0.4 -0.3
v 0.3 0.4 -0.3
v -0.5 0.6 0.2
v -0.3 0.6 0.2
v -0.5 0.6 0
v -0.3 0.6 0
v 0.3 0.6 0
v 0.5 0.6 0
v 0.3 0.6 -0.2
v 0.5 0.6 -0.2
v -0.3 1.1 0.3
v 0.3 1.1 0.3
v -0.4 1.1 0.2
v -0.3 1.1 0.2
v 0.3 1.1 0.2
v 0.4 1.1 0.2
v -0.2 1.1 0.1
v 0.2 1.1 0.1
v -0.2 1.1 -0.2
v 0.2 1.1 -0.2
v -0.4 1.1 -0.3
v -0.3 1.1 -0.3
v 0.3 1.1 -0.3
v 0.4 1.1 -0.3
v -0.3 1.1 -0.4
v 0.3 1.1 -0.4
v -0.4 1.2 0.3
v -0.3 1.2 0.3
v 0.3 1.2 0.3
v 0.4 1.2 0.3
v -0.4 1.2 0.2
v -0.3 1.2 0.2
v 0.3 1.2 0.2
v 0.4 1.2 0.2
v -0.4 1.2 -0.3
v -0.3 1.2 -0.3
v 0.3 1.2 -0.3
v 0.4 1.2 -0.3
v -0.4 1.2 -0.4
v -0.3 1.2 -0.4
v 0.3 1.2 -0.4
v 0.4 1.2 -0.4
v -0.1 1.3 0.4
v 0.1 1.3 0.4
v -0.1 1.3 0.3
v 0.1 1.3 0.3
v 0.1 0.3 0.1
v 0.3 0.3 0.1
v 0.1 0.3 0
v 0.3 0.3 0
v -0.3 0.3 -0.1
v -0.1 0.3 -0.1
v -0.3 0.3 -0.2
v -0.1 0.3 -0.2
v -0.5 0.8 0.2
v -0.3 0.8 0.2
v -0.5 0.8 0
v -0.3 0.8 0
v 0.3 0.8 0
v 0.5 0.8 0
v 0.3 0.8 -0.2
v 0.5 0.8 -0.2
v -0.3 1 0.2
v 0.3 1 0.2
v -0.2 1 0.1
v 0.2 1 0.1
v -0.2 1 -0.2
v 0.2 1 -0.2
v -0.3 1 -0.3
v 0.3 1 -0.3
v -0.1 1.4 0.4
v 0.1 1.4 0.4
v -0.1 1.4 0.3
v 0.1 1.4 0.3
v -0.4 1.6 0.3
v -0.3 1.6 0.3
v 0.3 1.6 0.3
v 0.4 1.6 0.3
v -0.4 1.6 0.2
v -0.3 1.6 0.2
v 0.3 1.6 0.2
v 0.4 1.6 0.2
v -0.4 1.6 -0.3
v -0.3 1.6 -0.3
v 0.3 1.6 -0.3
v 0.4 1.6 -0.3
v -0.4 1.6 -0.4
v -0.3 1.6 -0.4
v 0.3 1.6 -0.4
v 0.4 1.6 -0.4
v -0.3 1.7 0.3
v 0.3 1.7 0.3
v -0.4 1.7 0.2
v -0.3 1.7 0.2
v 0.3 1.7 0.2
v 0.4 1.7 0.2
v -0.4 1.7 -0.3
v -0.3 1.7 -0.3
v 0.3 1.7 -0.3
v 0.4 1.7 -0.3
v -0.3 1.7 -0.4
v 0.3 1.7 -0.4

# faces
f 3/4/1 2/4/1 1/4/1
f 4/4/1 2/4/1 3/4/1
f 8/1/1 6/1/1 5/1/1
f 9/1/1 6/1/1 8/1/1
f 11/1/1 8/1/1 7/1/1
f 11/1/1 10/1/1 9/1/1
f 11/1/1 9/1/1 8/1/1
f 12/1/1 10/1/1 11/1/1
f 13/1/1 10/1/1 12/1/1
f 14/1/1 10/1/1 13/1/1
f 15/1/1 13/1/1 12/1/1
f 16/1/1 13/1/1 15/1/1
f 20/1/1 18/1/1 17/1/1
f 21/1/1 18/1/1 20/1/1
f 23/1/1 20/1/1 19/1/1
f 24/1/1 20/1/1 23/1/1
f 26/1/1 24/1/1 23/1/1
f 26/1/1 25/1/1 24/1/1
f 26/1/1 23/1/1 22/1/1
f 27/1/1 25/1/1 26/1/1
f 29/1/1 25/1/1 27/1/1
f 30/1/1 29/1/1 28/1/1
f 31/1/1 25/1/1 29/1/1
f 31/1/1 29/1/1 30/1/1
f 36/1/1 33/1/1 32/1/1
f 37/1/1 33/1/1 36/1/1
f 38/1/1 35/1/1 34/1/1
f 39/1/1 35/1/1 38/1/1
f 44/1/1 41/1/1 40/1/1
f 45/1/1 41/1/1 44/1/1
f 46/1/1 43/1/1 42/1/1
f 47/1/1 43/1/1 46/1/1
f 50/1/1 49/1/1 48/1/1
f 51/1/1 49/1/1 50/1/1
f 54/2/1 53/2/1 52/2/1
f 55/2/1 53/2/1 54/2/1
f 58/1/1 57/1/1 56/1/1
f 59/1/1 57/1/1 58/1/1
f 61/1/1 60/1/1 59/1/1
f 62/1/1 60/1/1 61/1/1
f 63/1/2 64/1/2 66/1/2
f 66/1/2 64/1/2 67/1/2
f 65/1/2 66/1/2 68/1/2
f 68/1/2 66/1/2 69/1/2
f 70/2/2 71/2/2 72/2/2
f 72/2/2 71/2/2 73/2/2
f 74/1/2 75/1/2 76/1/2
f 76/1/2 75/1/2 77/1/2
f 78/1/2 79/1/2 80/1/2
f 80/1/2 79/1/2 81/1/2
f 81/1/2 82/1/2 84/1/2
f 84/1/2 82/1/2 85/1/2
f 83/1/2 84/1/2 87/1/2
f 85/1/2 86/1/2 87/1/2
f 84/1/2 85/1/2 87/1/2
f 87/1/2 86/1/2 88/1/2
f 83/1/2 87/1/2 89/1/2
f 88/1/2 86/1/2 90/1/2
f 83/1/2 89/1/2 91/1/2
f 89/1/2 90/1/2 91/1/2
f 90/1/2 86/1/2 92/1/2
f 91/1/2 90/1/2 92/1/2
f 93/1/2 94/1/2 97/1/2
f 97/1/2 94/1/2 98/1/2
f 95/1/2 96/1/2 99/1/2
f 99/1/2 96/1/2 100/1/2
f 101/1/2 102/1/2 105/1/2
f 105/1/2 102/1/2 106/1/2
f 103/1/2 104/1/2 107/1/2
f 107/1/2 104/1/2 108/1/2
f 109/1/2 110/1/2 112/1/2
f 112/1/2 110/1/2 113/1/2
f 111/1/2 112/1/2 115/1/2
f 113/1/2 114/1/2 115/1/2
f 112/1/2 113/1/2 115/1/2
f 115/1/2 114/1/2 116/1/2
f 116/1/2 114/1/2 117/1/2
f 117/1/2 114/1/2 118/1/2
f 116/1/2 117/1/2 119/1/2
f 119/1/2 117/1/2 120/1/2
f 121/4/2 122/4/2 123/4/2
f 123/4/2 122/4/2 124/4/2
f 127/2/3 126/2/3 125/2/3
f 128/2/3 126/2/3 127/2/3
f 132/1/3 130/1/3 129/1/3
f 133/1/3 130/1/3 132/1/3
f 134/1/3 130/1/3 133/1/3
f 135/1/3 130/1/3 134/1/3
f 137/1/3 132/1/3 131/1/3
f 137/1/3 133/1/3 132/1/3
f 137/3/3 134/3/3 133/3/3
f 138/1/3 136/1/3 135/1/3
f 138/3/3 134/3/3 137/3/3
f 138/1/3 135/1/3 134/1/3
f 139/1/3 137/1/3 131/1/3
f 140/5/3 138/5/3 137/5/3
f 140/1/3 137/1/3 139/1/3
f 141/1/3 136/1/3 138/1/3
f 141/5/3 138/5/3 140/5/3
f 142/1/3 139/1/3 131/1/3
f 143/1/3 141/1/3 140/1/3
f 144/1/3 136/1/3 141/1/3
f 144/1/3 141/1/3 143/1/3
f 145/1/3 143/1/3 142/1/3
f 145/5/3 144/5/3 143/5/3
f 146/1/3 136/1/3 144/1/3
f 146/5/3 144/5/3 145/5/3
f 147/1/3 145/1/3 142/1/3
f 147/1/3 142/1/3 131/1/3
f 148/1/3 145/1/3 147/1/3
f 149/3/3 146/3/3 145/3/3
f 149/1/3 145/1/3 148/1/3
f 150/1/3 136/1/3 146/1/3
f 150/3/3 146/3/3 149/3/3
f 151/1/3 136/1/3 150/1/3
f 152/1/3 136/1/3 151/1/3
f 153/1/3 149/1/3 148/1/3
f 153/1/3 151/1/3 150/1/3
f 153/1/3 150/1/3 149/1/3
f 154/1/3 151/1/3 153/1/3
f 162/4/3 156/4/3 155/4/3
f 163/4/3 156/4/3 162/4/3
f 165/1/3 158/1/3 157/1/3
f 166/1/3 158/1/3 165/1/3
f 167/1/3 160/1/3 159/1/3
f 168/1/3 160/1/3 167/1/3
f 169/1/3 164/1/3 163/1/3
f 169/1/3 162/1/3 161/1/3
f 169/1/3 163/1/3 162/1/3
f 170/1/3 164/1/3 169/1/3
f 175/1/3 172/1/3 171/1/3
f 176/1/3 172/1/3 175/1/3
f 177/1/3 174/1/3 173/1/3
f 178/1/3 174/1/3 177/1/3
f 183/1/3 180/1/3 179/1/3
f 184/1/3 180/1/3 183/1/3
f 185/1/3 182/1/3 181/1/3
f 186/1/3 182/1/3 185/1/3
f 189/1/3 188/1/3 187/1/3
f 190/1/3 188/1/3 189/1/3
f 193/1/3 192/1/3 191/1/3
f 194/1/3 192/1/3 193/1/3
f 197/4/3 196/4/3 195/4/3
f 198/4/3 196/4/3 197/4/3
f 201/1/3 200/1/3 199/1/3
f 202/1/3 200/1/3 201/1/3
f 203/4/4 204/4/4 205/4/4
f 205/4/4 204/4/4 206/4/4
f 207/1/4 208/1/4 209/1/4
f 209/1/4 208/1/4 210/1/4
f 211/1/4 212/1/4 213/1/4
f 213/1/4 212/1/4 214/1/4
f 215/1/4 216/1/4 217/1/4
f 217/1/4 216/1/4 218/1/4
f 219/1/4 220/1/4 223/1/4
f 223/1/4 220/1/4 224/1/4
f 221/1/4 222/1/4 225/1/4
f 225/1/4 222/1/4 226/1/4
f 227/4/4 228/4/4 229/4/4
f 229/4/4 228/4/4 230/4/4
f 231/1/4 232/1/4 237/1/4
f 237/1/4 232/1/4 238/1/4
f 233/1/4 234/1/4 239/1/4
f 239/1/4 234/1/4 240/1/4
f 235/1/4 236/1/4 241/1/4
f 241/1/4 236/1/4 242/1/4
f 243/1/4 244/1/4 247/1/4
f 247/1/4 244/1/4 248/1/4
f 245/1/4 246/1/4 249/1/4
f 249/1/4 246/1/4 250/1/4
f 251/1/4 252/1/4 254/1/4
f 254/1/4 252/1/4 255/1/4
f 253/1/4 254/1/4 257/1/4
f 255/1/4 256/1/4 257/1/4
f 254/1/4 255/1/4 257/1/4
f 257/1/4 256/1/4 258/1/4
f 258/1/4 256/1/4 259/1/4
f 259/1/4 256/1/4 260/1/4
f 258/1/4 259/1/4 261/1/4
f 261/1/4 259/1/4 262/1/4
f 265/1/5 264/1/5 263/1/5
f 266/1/5 264/1/5 265/1/5
f 269/1/5 268/1/5 267/1/5
f 270/1/5 268/1/5 269/1/5
f 275/1/5 272/1/5 271/1/5
f 276/1/5 272/1/5 275/1/5
f 277/1/5 274/1/5 273/1/5
f 278/1/5 274/1/5 277/1/5
f 281/1/5 280/1/5 279/1/5
f 282/1/5 280/1/5 281/1/5
f 283/1/5 280/1/5 282/1/5
f 284/1/5 280/1/5 283/1/5
f 286/1/5 283/1/5 282/1/5
f 287/1/5 283/1/5 286/1/5
f 289/1/5 286/1/5 285/1/5
f 289/1/5 288/1/5 287/1/5
f 289/1/5 287/1/5 286/1/5
f 290/1/5 288/1/5 289/1/5
f 293/4/5 292/4/5 291/4/5
f 294/4/5 292/4/5 293/4/5
f 297/4/5 296/4/5 295/4/5
f 298/4/5 296/4/5 297/4/5
f 302/1/5 300/1/5 299/1/5
f 303/1/5 300/1/5 302/1/5
f 305/1/5 302/1/5 301/1/5
f 305/1/5 304/1/5 303/1/5
f 305/1/5 303/1/5 302/1/5
f 306/1/5 304/1/5 305/1/5
f 307/1/5 305/1/5 301/1/5
f 308/1/5 304/1/5 306/1/5
f 309/1/5 307/1/5 301/1/5
f 309/1/5 308/1/5 307/1/5
f 310/1/5 308/1/5 309/1/5
f 311/1/5 304/1/5 308/1/5
f 311/1/5 308/1/5 310/1/5
f 312/1/5 304/1/5 311/1/5
f 313/1/5 311/1/5 310/1/5
f 314/1/5 311/1/5 313/1/5
f 319/1/5 316/1/5 315/1/5
f 320/1/5 316/1/5 319/1/5
f 321/1/5 318/1/5 317/1/5
f 322/1/5 318/1/5 321/1/5
f 327/1/5 324/1/5 323/1/5
f 328/1/5 324/1/5 327/1/5
f 329/1/5 326/1/5 325/1/5
f 330/1/5 326/1/5 329/1/5
f 333/2/5 332/2/5 331/2/5
f 334/2/5 332/2/5 333/2/5
f 335/1/6 336/1/6 337/1/6
f 337/1/6 336/1/6 338/1/6
f 339/1/6 340/1/6 341/1/6
f 341/1/6 340/1/6 342/1/6
f 343/4/6 344/4/6 345/4/6
f 345/4/6 344/4/6 346/4/6
f 347/4/6 348/4/6 349/4/6
f 349/4/6 348/4/6 350/4/6
f 351/1/6 352/1/6 353/1/6
f 353/1/6 352/1/6 354/1/6
f 351/1/6 353/1/6 355/1/6
f 354/1/6 352/1/6 356/1/6
f 351/1/6 355/1/6 357/1/6
f 355/1/6 356/1/6 357/1/6
f 356/1/6 352/1/6 358/1/6
f 357/1/6 356/1/6 358/1/6
f 359/2/6 360/2/6 361/2/6
f 361/2/6 360/2/6 362/2/6
f 363/1/6 364/1/6 367/1/6
f 367/1/6 364/1/6 368/1/6
f 365/1/6 366/1/6 369/1/6
f 369/1/6 366/1/6 370/1/6
f 371/1/6 372/1/6 375/1/6
f 375/1/6 372/1/6 376/1/6
f 373/1/6 374/1/6 377/1/6
f 377/1/6 374/1/6 378/1/6
f 379/1/6 380/1/6 382/1/6
f 382/1/6 380/1/6 383/1/6
f 381/1/6 382/1/6 385/1/6
f 383/1/6 384/1/6 385/1/6
f 382/1/6 383/1/6 385/1/6
f 385/1/6 384/1/6 386/1/6
f 386/1/6 384/1/6 387/1/6
f 387/1/6 384/1/6 388/1/6
f 386/1/6 387/1/6 389/1/6
f 389/1/6 387/1/6 390/1/6
